<?xml version="1.0" encoding="utf-8" standalone="no"?>
<!DOCTYPE svg PUBLIC "-//W3C//DTD SVG 1.1//EN"
  "http://www.w3.org/Graphics/SVG/1.1/DTD/svg11.dtd">
<svg xmlns:xlink="http://www.w3.org/1999/xlink" width="910.8pt" height="341.318125pt" viewBox="0 0 910.8 341.318125" xmlns="http://www.w3.org/2000/svg" version="1.1">
 <metadata>
  <rdf:RDF xmlns:dc="http://purl.org/dc/elements/1.1/" xmlns:cc="http://creativecommons.org/ns#" xmlns:rdf="http://www.w3.org/1999/02/22-rdf-syntax-ns#">
   <cc:Work>
    <dc:type rdf:resource="http://purl.org/dc/dcmitype/StillImage"/>
    <dc:date>2024-06-10T18:34:44.715384</dc:date>
    <dc:format>image/svg+xml</dc:format>
    <dc:creator>
     <cc:Agent>
      <dc:title>Matplotlib v3.5.2, https://matplotlib.org/</dc:title>
     </cc:Agent>
    </dc:creator>
   </cc:Work>
  </rdf:RDF>
 </metadata>
 <defs>
  <style type="text/css">*{stroke-linejoin: round; stroke-linecap: butt}</style>
 </defs>
 <g id="figure_1">
  <g id="patch_1">
   <path d="M 0 341.318125 
L 910.8 341.318125 
L 910.8 0 
L 0 0 
z
" style="fill: #ffffff"/>
  </g>
  <g id="axes_1">
   <g id="patch_2">
    <path d="M 66.6 231.118125 
L 312.776471 231.118125 
L 312.776471 22.318125 
L 66.6 22.318125 
z
" style="fill: #ffffff"/>
   </g>
   <g id="matplotlib.axis_1">
    <g id="xtick_1">
     <g id="line2d_1">
      <defs>
       <path id="m68697b8ba1" d="M 0 0 
L 0 3.5 
" style="stroke: #000000; stroke-width: 0.8"/>
      </defs>
      <g>
       <use xlink:href="#m68697b8ba1" x="77.78984" y="231.118125" style="stroke: #000000; stroke-width: 0.8"/>
      </g>
     </g>
     <g id="text_1">
      <!-- 0 -->
      <g transform="translate(74.60859 245.716563)scale(0.1 -0.1)">
       <defs>
        <path id="DejaVuSans-30" d="M 2034 4250 
Q 1547 4250 1301 3770 
Q 1056 3291 1056 2328 
Q 1056 1369 1301 889 
Q 1547 409 2034 409 
Q 2525 409 2770 889 
Q 3016 1369 3016 2328 
Q 3016 3291 2770 3770 
Q 2525 4250 2034 4250 
z
M 2034 4750 
Q 2819 4750 3233 4129 
Q 3647 3509 3647 2328 
Q 3647 1150 3233 529 
Q 2819 -91 2034 -91 
Q 1250 -91 836 529 
Q 422 1150 422 2328 
Q 422 3509 836 4129 
Q 1250 4750 2034 4750 
z
" transform="scale(0.015625)"/>
       </defs>
       <use xlink:href="#DejaVuSans-30"/>
      </g>
     </g>
    </g>
    <g id="xtick_2">
     <g id="line2d_2">
      <g>
       <use xlink:href="#m68697b8ba1" x="122.549198" y="231.118125" style="stroke: #000000; stroke-width: 0.8"/>
      </g>
     </g>
     <g id="text_2">
      <!-- 20 -->
      <g transform="translate(116.186698 245.716563)scale(0.1 -0.1)">
       <defs>
        <path id="DejaVuSans-32" d="M 1228 531 
L 3431 531 
L 3431 0 
L 469 0 
L 469 531 
Q 828 903 1448 1529 
Q 2069 2156 2228 2338 
Q 2531 2678 2651 2914 
Q 2772 3150 2772 3378 
Q 2772 3750 2511 3984 
Q 2250 4219 1831 4219 
Q 1534 4219 1204 4116 
Q 875 4013 500 3803 
L 500 4441 
Q 881 4594 1212 4672 
Q 1544 4750 1819 4750 
Q 2544 4750 2975 4387 
Q 3406 4025 3406 3419 
Q 3406 3131 3298 2873 
Q 3191 2616 2906 2266 
Q 2828 2175 2409 1742 
Q 1991 1309 1228 531 
z
" transform="scale(0.015625)"/>
       </defs>
       <use xlink:href="#DejaVuSans-32"/>
       <use xlink:href="#DejaVuSans-30" x="63.623047"/>
      </g>
     </g>
    </g>
    <g id="xtick_3">
     <g id="line2d_3">
      <g>
       <use xlink:href="#m68697b8ba1" x="167.308556" y="231.118125" style="stroke: #000000; stroke-width: 0.8"/>
      </g>
     </g>
     <g id="text_3">
      <!-- 40 -->
      <g transform="translate(160.946056 245.716563)scale(0.1 -0.1)">
       <defs>
        <path id="DejaVuSans-34" d="M 2419 4116 
L 825 1625 
L 2419 1625 
L 2419 4116 
z
M 2253 4666 
L 3047 4666 
L 3047 1625 
L 3713 1625 
L 3713 1100 
L 3047 1100 
L 3047 0 
L 2419 0 
L 2419 1100 
L 313 1100 
L 313 1709 
L 2253 4666 
z
" transform="scale(0.015625)"/>
       </defs>
       <use xlink:href="#DejaVuSans-34"/>
       <use xlink:href="#DejaVuSans-30" x="63.623047"/>
      </g>
     </g>
    </g>
    <g id="xtick_4">
     <g id="line2d_4">
      <g>
       <use xlink:href="#m68697b8ba1" x="212.067914" y="231.118125" style="stroke: #000000; stroke-width: 0.8"/>
      </g>
     </g>
     <g id="text_4">
      <!-- 60 -->
      <g transform="translate(205.705414 245.716563)scale(0.1 -0.1)">
       <defs>
        <path id="DejaVuSans-36" d="M 2113 2584 
Q 1688 2584 1439 2293 
Q 1191 2003 1191 1497 
Q 1191 994 1439 701 
Q 1688 409 2113 409 
Q 2538 409 2786 701 
Q 3034 994 3034 1497 
Q 3034 2003 2786 2293 
Q 2538 2584 2113 2584 
z
M 3366 4563 
L 3366 3988 
Q 3128 4100 2886 4159 
Q 2644 4219 2406 4219 
Q 1781 4219 1451 3797 
Q 1122 3375 1075 2522 
Q 1259 2794 1537 2939 
Q 1816 3084 2150 3084 
Q 2853 3084 3261 2657 
Q 3669 2231 3669 1497 
Q 3669 778 3244 343 
Q 2819 -91 2113 -91 
Q 1303 -91 875 529 
Q 447 1150 447 2328 
Q 447 3434 972 4092 
Q 1497 4750 2381 4750 
Q 2619 4750 2861 4703 
Q 3103 4656 3366 4563 
z
" transform="scale(0.015625)"/>
       </defs>
       <use xlink:href="#DejaVuSans-36"/>
       <use xlink:href="#DejaVuSans-30" x="63.623047"/>
      </g>
     </g>
    </g>
    <g id="xtick_5">
     <g id="line2d_5">
      <g>
       <use xlink:href="#m68697b8ba1" x="256.827273" y="231.118125" style="stroke: #000000; stroke-width: 0.8"/>
      </g>
     </g>
     <g id="text_5">
      <!-- 80 -->
      <g transform="translate(250.464773 245.716563)scale(0.1 -0.1)">
       <defs>
        <path id="DejaVuSans-38" d="M 2034 2216 
Q 1584 2216 1326 1975 
Q 1069 1734 1069 1313 
Q 1069 891 1326 650 
Q 1584 409 2034 409 
Q 2484 409 2743 651 
Q 3003 894 3003 1313 
Q 3003 1734 2745 1975 
Q 2488 2216 2034 2216 
z
M 1403 2484 
Q 997 2584 770 2862 
Q 544 3141 544 3541 
Q 544 4100 942 4425 
Q 1341 4750 2034 4750 
Q 2731 4750 3128 4425 
Q 3525 4100 3525 3541 
Q 3525 3141 3298 2862 
Q 3072 2584 2669 2484 
Q 3125 2378 3379 2068 
Q 3634 1759 3634 1313 
Q 3634 634 3220 271 
Q 2806 -91 2034 -91 
Q 1263 -91 848 271 
Q 434 634 434 1313 
Q 434 1759 690 2068 
Q 947 2378 1403 2484 
z
M 1172 3481 
Q 1172 3119 1398 2916 
Q 1625 2713 2034 2713 
Q 2441 2713 2670 2916 
Q 2900 3119 2900 3481 
Q 2900 3844 2670 4047 
Q 2441 4250 2034 4250 
Q 1625 4250 1398 4047 
Q 1172 3844 1172 3481 
z
" transform="scale(0.015625)"/>
       </defs>
       <use xlink:href="#DejaVuSans-38"/>
       <use xlink:href="#DejaVuSans-30" x="63.623047"/>
      </g>
     </g>
    </g>
    <g id="xtick_6">
     <g id="line2d_6">
      <g>
       <use xlink:href="#m68697b8ba1" x="301.586631" y="231.118125" style="stroke: #000000; stroke-width: 0.8"/>
      </g>
     </g>
     <g id="text_6">
      <!-- 100 -->
      <g transform="translate(292.042881 245.716563)scale(0.1 -0.1)">
       <defs>
        <path id="DejaVuSans-31" d="M 794 531 
L 1825 531 
L 1825 4091 
L 703 3866 
L 703 4441 
L 1819 4666 
L 2450 4666 
L 2450 531 
L 3481 531 
L 3481 0 
L 794 0 
L 794 531 
z
" transform="scale(0.015625)"/>
       </defs>
       <use xlink:href="#DejaVuSans-31"/>
       <use xlink:href="#DejaVuSans-30" x="63.623047"/>
       <use xlink:href="#DejaVuSans-30" x="127.246094"/>
      </g>
     </g>
    </g>
    <g id="text_7">
     <!-- Percentage of requests -->
     <g transform="translate(131.959329 259.394688)scale(0.1 -0.1)">
      <defs>
       <path id="DejaVuSans-50" d="M 1259 4147 
L 1259 2394 
L 2053 2394 
Q 2494 2394 2734 2622 
Q 2975 2850 2975 3272 
Q 2975 3691 2734 3919 
Q 2494 4147 2053 4147 
L 1259 4147 
z
M 628 4666 
L 2053 4666 
Q 2838 4666 3239 4311 
Q 3641 3956 3641 3272 
Q 3641 2581 3239 2228 
Q 2838 1875 2053 1875 
L 1259 1875 
L 1259 0 
L 628 0 
L 628 4666 
z
" transform="scale(0.015625)"/>
       <path id="DejaVuSans-65" d="M 3597 1894 
L 3597 1613 
L 953 1613 
Q 991 1019 1311 708 
Q 1631 397 2203 397 
Q 2534 397 2845 478 
Q 3156 559 3463 722 
L 3463 178 
Q 3153 47 2828 -22 
Q 2503 -91 2169 -91 
Q 1331 -91 842 396 
Q 353 884 353 1716 
Q 353 2575 817 3079 
Q 1281 3584 2069 3584 
Q 2775 3584 3186 3129 
Q 3597 2675 3597 1894 
z
M 3022 2063 
Q 3016 2534 2758 2815 
Q 2500 3097 2075 3097 
Q 1594 3097 1305 2825 
Q 1016 2553 972 2059 
L 3022 2063 
z
" transform="scale(0.015625)"/>
       <path id="DejaVuSans-72" d="M 2631 2963 
Q 2534 3019 2420 3045 
Q 2306 3072 2169 3072 
Q 1681 3072 1420 2755 
Q 1159 2438 1159 1844 
L 1159 0 
L 581 0 
L 581 3500 
L 1159 3500 
L 1159 2956 
Q 1341 3275 1631 3429 
Q 1922 3584 2338 3584 
Q 2397 3584 2469 3576 
Q 2541 3569 2628 3553 
L 2631 2963 
z
" transform="scale(0.015625)"/>
       <path id="DejaVuSans-63" d="M 3122 3366 
L 3122 2828 
Q 2878 2963 2633 3030 
Q 2388 3097 2138 3097 
Q 1578 3097 1268 2742 
Q 959 2388 959 1747 
Q 959 1106 1268 751 
Q 1578 397 2138 397 
Q 2388 397 2633 464 
Q 2878 531 3122 666 
L 3122 134 
Q 2881 22 2623 -34 
Q 2366 -91 2075 -91 
Q 1284 -91 818 406 
Q 353 903 353 1747 
Q 353 2603 823 3093 
Q 1294 3584 2113 3584 
Q 2378 3584 2631 3529 
Q 2884 3475 3122 3366 
z
" transform="scale(0.015625)"/>
       <path id="DejaVuSans-6e" d="M 3513 2113 
L 3513 0 
L 2938 0 
L 2938 2094 
Q 2938 2591 2744 2837 
Q 2550 3084 2163 3084 
Q 1697 3084 1428 2787 
Q 1159 2491 1159 1978 
L 1159 0 
L 581 0 
L 581 3500 
L 1159 3500 
L 1159 2956 
Q 1366 3272 1645 3428 
Q 1925 3584 2291 3584 
Q 2894 3584 3203 3211 
Q 3513 2838 3513 2113 
z
" transform="scale(0.015625)"/>
       <path id="DejaVuSans-74" d="M 1172 4494 
L 1172 3500 
L 2356 3500 
L 2356 3053 
L 1172 3053 
L 1172 1153 
Q 1172 725 1289 603 
Q 1406 481 1766 481 
L 2356 481 
L 2356 0 
L 1766 0 
Q 1100 0 847 248 
Q 594 497 594 1153 
L 594 3053 
L 172 3053 
L 172 3500 
L 594 3500 
L 594 4494 
L 1172 4494 
z
" transform="scale(0.015625)"/>
       <path id="DejaVuSans-61" d="M 2194 1759 
Q 1497 1759 1228 1600 
Q 959 1441 959 1056 
Q 959 750 1161 570 
Q 1363 391 1709 391 
Q 2188 391 2477 730 
Q 2766 1069 2766 1631 
L 2766 1759 
L 2194 1759 
z
M 3341 1997 
L 3341 0 
L 2766 0 
L 2766 531 
Q 2569 213 2275 61 
Q 1981 -91 1556 -91 
Q 1019 -91 701 211 
Q 384 513 384 1019 
Q 384 1609 779 1909 
Q 1175 2209 1959 2209 
L 2766 2209 
L 2766 2266 
Q 2766 2663 2505 2880 
Q 2244 3097 1772 3097 
Q 1472 3097 1187 3025 
Q 903 2953 641 2809 
L 641 3341 
Q 956 3463 1253 3523 
Q 1550 3584 1831 3584 
Q 2591 3584 2966 3190 
Q 3341 2797 3341 1997 
z
" transform="scale(0.015625)"/>
       <path id="DejaVuSans-67" d="M 2906 1791 
Q 2906 2416 2648 2759 
Q 2391 3103 1925 3103 
Q 1463 3103 1205 2759 
Q 947 2416 947 1791 
Q 947 1169 1205 825 
Q 1463 481 1925 481 
Q 2391 481 2648 825 
Q 2906 1169 2906 1791 
z
M 3481 434 
Q 3481 -459 3084 -895 
Q 2688 -1331 1869 -1331 
Q 1566 -1331 1297 -1286 
Q 1028 -1241 775 -1147 
L 775 -588 
Q 1028 -725 1275 -790 
Q 1522 -856 1778 -856 
Q 2344 -856 2625 -561 
Q 2906 -266 2906 331 
L 2906 616 
Q 2728 306 2450 153 
Q 2172 0 1784 0 
Q 1141 0 747 490 
Q 353 981 353 1791 
Q 353 2603 747 3093 
Q 1141 3584 1784 3584 
Q 2172 3584 2450 3431 
Q 2728 3278 2906 2969 
L 2906 3500 
L 3481 3500 
L 3481 434 
z
" transform="scale(0.015625)"/>
       <path id="DejaVuSans-20" transform="scale(0.015625)"/>
       <path id="DejaVuSans-6f" d="M 1959 3097 
Q 1497 3097 1228 2736 
Q 959 2375 959 1747 
Q 959 1119 1226 758 
Q 1494 397 1959 397 
Q 2419 397 2687 759 
Q 2956 1122 2956 1747 
Q 2956 2369 2687 2733 
Q 2419 3097 1959 3097 
z
M 1959 3584 
Q 2709 3584 3137 3096 
Q 3566 2609 3566 1747 
Q 3566 888 3137 398 
Q 2709 -91 1959 -91 
Q 1206 -91 779 398 
Q 353 888 353 1747 
Q 353 2609 779 3096 
Q 1206 3584 1959 3584 
z
" transform="scale(0.015625)"/>
       <path id="DejaVuSans-66" d="M 2375 4863 
L 2375 4384 
L 1825 4384 
Q 1516 4384 1395 4259 
Q 1275 4134 1275 3809 
L 1275 3500 
L 2222 3500 
L 2222 3053 
L 1275 3053 
L 1275 0 
L 697 0 
L 697 3053 
L 147 3053 
L 147 3500 
L 697 3500 
L 697 3744 
Q 697 4328 969 4595 
Q 1241 4863 1831 4863 
L 2375 4863 
z
" transform="scale(0.015625)"/>
       <path id="DejaVuSans-71" d="M 947 1747 
Q 947 1113 1208 752 
Q 1469 391 1925 391 
Q 2381 391 2643 752 
Q 2906 1113 2906 1747 
Q 2906 2381 2643 2742 
Q 2381 3103 1925 3103 
Q 1469 3103 1208 2742 
Q 947 2381 947 1747 
z
M 2906 525 
Q 2725 213 2448 61 
Q 2172 -91 1784 -91 
Q 1150 -91 751 415 
Q 353 922 353 1747 
Q 353 2572 751 3078 
Q 1150 3584 1784 3584 
Q 2172 3584 2448 3432 
Q 2725 3281 2906 2969 
L 2906 3500 
L 3481 3500 
L 3481 -1331 
L 2906 -1331 
L 2906 525 
z
" transform="scale(0.015625)"/>
       <path id="DejaVuSans-75" d="M 544 1381 
L 544 3500 
L 1119 3500 
L 1119 1403 
Q 1119 906 1312 657 
Q 1506 409 1894 409 
Q 2359 409 2629 706 
Q 2900 1003 2900 1516 
L 2900 3500 
L 3475 3500 
L 3475 0 
L 2900 0 
L 2900 538 
Q 2691 219 2414 64 
Q 2138 -91 1772 -91 
Q 1169 -91 856 284 
Q 544 659 544 1381 
z
M 1991 3584 
L 1991 3584 
z
" transform="scale(0.015625)"/>
       <path id="DejaVuSans-73" d="M 2834 3397 
L 2834 2853 
Q 2591 2978 2328 3040 
Q 2066 3103 1784 3103 
Q 1356 3103 1142 2972 
Q 928 2841 928 2578 
Q 928 2378 1081 2264 
Q 1234 2150 1697 2047 
L 1894 2003 
Q 2506 1872 2764 1633 
Q 3022 1394 3022 966 
Q 3022 478 2636 193 
Q 2250 -91 1575 -91 
Q 1294 -91 989 -36 
Q 684 19 347 128 
L 347 722 
Q 666 556 975 473 
Q 1284 391 1588 391 
Q 1994 391 2212 530 
Q 2431 669 2431 922 
Q 2431 1156 2273 1281 
Q 2116 1406 1581 1522 
L 1381 1569 
Q 847 1681 609 1914 
Q 372 2147 372 2553 
Q 372 3047 722 3315 
Q 1072 3584 1716 3584 
Q 2034 3584 2315 3537 
Q 2597 3491 2834 3397 
z
" transform="scale(0.015625)"/>
      </defs>
      <use xlink:href="#DejaVuSans-50"/>
      <use xlink:href="#DejaVuSans-65" x="56.677734"/>
      <use xlink:href="#DejaVuSans-72" x="118.201172"/>
      <use xlink:href="#DejaVuSans-63" x="157.064453"/>
      <use xlink:href="#DejaVuSans-65" x="212.044922"/>
      <use xlink:href="#DejaVuSans-6e" x="273.568359"/>
      <use xlink:href="#DejaVuSans-74" x="336.947266"/>
      <use xlink:href="#DejaVuSans-61" x="376.15625"/>
      <use xlink:href="#DejaVuSans-67" x="437.435547"/>
      <use xlink:href="#DejaVuSans-65" x="500.912109"/>
      <use xlink:href="#DejaVuSans-20" x="562.435547"/>
      <use xlink:href="#DejaVuSans-6f" x="594.222656"/>
      <use xlink:href="#DejaVuSans-66" x="655.404297"/>
      <use xlink:href="#DejaVuSans-20" x="690.609375"/>
      <use xlink:href="#DejaVuSans-72" x="722.396484"/>
      <use xlink:href="#DejaVuSans-65" x="761.259766"/>
      <use xlink:href="#DejaVuSans-71" x="822.783203"/>
      <use xlink:href="#DejaVuSans-75" x="886.259766"/>
      <use xlink:href="#DejaVuSans-65" x="949.638672"/>
      <use xlink:href="#DejaVuSans-73" x="1011.162109"/>
      <use xlink:href="#DejaVuSans-74" x="1063.261719"/>
      <use xlink:href="#DejaVuSans-73" x="1102.470703"/>
     </g>
    </g>
   </g>
   <g id="matplotlib.axis_2">
    <g id="ytick_1">
     <g id="line2d_7">
      <defs>
       <path id="me7ea31aaaa" d="M 0 0 
L -3.5 0 
" style="stroke: #000000; stroke-width: 0.8"/>
      </defs>
      <g>
       <use xlink:href="#me7ea31aaaa" x="66.6" y="222.336365" style="stroke: #000000; stroke-width: 0.8"/>
      </g>
     </g>
     <g id="text_8">
      <!-- 0 -->
      <g transform="translate(53.2375 226.135584)scale(0.1 -0.1)">
       <use xlink:href="#DejaVuSans-30"/>
      </g>
     </g>
    </g>
    <g id="ytick_2">
     <g id="line2d_8">
      <g>
       <use xlink:href="#me7ea31aaaa" x="66.6" y="187.43231" style="stroke: #000000; stroke-width: 0.8"/>
      </g>
     </g>
     <g id="text_9">
      <!-- 5000 -->
      <g transform="translate(34.15 191.231528)scale(0.1 -0.1)">
       <defs>
        <path id="DejaVuSans-35" d="M 691 4666 
L 3169 4666 
L 3169 4134 
L 1269 4134 
L 1269 2991 
Q 1406 3038 1543 3061 
Q 1681 3084 1819 3084 
Q 2600 3084 3056 2656 
Q 3513 2228 3513 1497 
Q 3513 744 3044 326 
Q 2575 -91 1722 -91 
Q 1428 -91 1123 -41 
Q 819 9 494 109 
L 494 744 
Q 775 591 1075 516 
Q 1375 441 1709 441 
Q 2250 441 2565 725 
Q 2881 1009 2881 1497 
Q 2881 1984 2565 2268 
Q 2250 2553 1709 2553 
Q 1456 2553 1204 2497 
Q 953 2441 691 2322 
L 691 4666 
z
" transform="scale(0.015625)"/>
       </defs>
       <use xlink:href="#DejaVuSans-35"/>
       <use xlink:href="#DejaVuSans-30" x="63.623047"/>
       <use xlink:href="#DejaVuSans-30" x="127.246094"/>
       <use xlink:href="#DejaVuSans-30" x="190.869141"/>
      </g>
     </g>
    </g>
    <g id="ytick_3">
     <g id="line2d_9">
      <g>
       <use xlink:href="#me7ea31aaaa" x="66.6" y="152.528254" style="stroke: #000000; stroke-width: 0.8"/>
      </g>
     </g>
     <g id="text_10">
      <!-- 10000 -->
      <g transform="translate(27.7875 156.327473)scale(0.1 -0.1)">
       <use xlink:href="#DejaVuSans-31"/>
       <use xlink:href="#DejaVuSans-30" x="63.623047"/>
       <use xlink:href="#DejaVuSans-30" x="127.246094"/>
       <use xlink:href="#DejaVuSans-30" x="190.869141"/>
       <use xlink:href="#DejaVuSans-30" x="254.492188"/>
      </g>
     </g>
    </g>
    <g id="ytick_4">
     <g id="line2d_10">
      <g>
       <use xlink:href="#me7ea31aaaa" x="66.6" y="117.624199" style="stroke: #000000; stroke-width: 0.8"/>
      </g>
     </g>
     <g id="text_11">
      <!-- 15000 -->
      <g transform="translate(27.7875 121.423418)scale(0.1 -0.1)">
       <use xlink:href="#DejaVuSans-31"/>
       <use xlink:href="#DejaVuSans-35" x="63.623047"/>
       <use xlink:href="#DejaVuSans-30" x="127.246094"/>
       <use xlink:href="#DejaVuSans-30" x="190.869141"/>
       <use xlink:href="#DejaVuSans-30" x="254.492188"/>
      </g>
     </g>
    </g>
    <g id="ytick_5">
     <g id="line2d_11">
      <g>
       <use xlink:href="#me7ea31aaaa" x="66.6" y="82.720144" style="stroke: #000000; stroke-width: 0.8"/>
      </g>
     </g>
     <g id="text_12">
      <!-- 20000 -->
      <g transform="translate(27.7875 86.519362)scale(0.1 -0.1)">
       <use xlink:href="#DejaVuSans-32"/>
       <use xlink:href="#DejaVuSans-30" x="63.623047"/>
       <use xlink:href="#DejaVuSans-30" x="127.246094"/>
       <use xlink:href="#DejaVuSans-30" x="190.869141"/>
       <use xlink:href="#DejaVuSans-30" x="254.492188"/>
      </g>
     </g>
    </g>
    <g id="ytick_6">
     <g id="line2d_12">
      <g>
       <use xlink:href="#me7ea31aaaa" x="66.6" y="47.816088" style="stroke: #000000; stroke-width: 0.8"/>
      </g>
     </g>
     <g id="text_13">
      <!-- 25000 -->
      <g transform="translate(27.7875 51.615307)scale(0.1 -0.1)">
       <use xlink:href="#DejaVuSans-32"/>
       <use xlink:href="#DejaVuSans-35" x="63.623047"/>
       <use xlink:href="#DejaVuSans-30" x="127.246094"/>
       <use xlink:href="#DejaVuSans-30" x="190.869141"/>
       <use xlink:href="#DejaVuSans-30" x="254.492188"/>
      </g>
     </g>
    </g>
   </g>
   <g id="line2d_13">
    <path d="M 77.78984 221.627216 
L 80.027807 221.590931 
L 82.265775 221.581884 
L 84.503743 221.575249 
L 86.741711 221.569776 
L 88.979679 221.564932 
L 91.217647 221.560488 
L 93.455615 221.556194 
L 95.693583 221.552192 
L 97.931551 221.548301 
L 100.169519 221.5445 
L 102.407487 221.540782 
L 104.645455 221.537217 
L 106.883422 221.533681 
L 109.12139 221.530107 
L 111.359358 221.526636 
L 113.597326 221.523131 
L 115.835294 221.519623 
L 118.073262 221.515993 
L 120.31123 221.512333 
L 122.549198 221.508638 
L 124.787166 221.50477 
L 127.025134 221.500874 
L 129.263102 221.496765 
L 131.50107 221.492456 
L 133.739037 221.487999 
L 135.977005 221.483269 
L 138.214973 221.47829 
L 140.452941 221.472922 
L 142.690909 221.467318 
L 144.928877 221.461286 
L 147.166845 221.45488 
L 149.404813 221.448291 
L 151.642781 221.441542 
L 153.880749 221.434882 
L 156.118717 221.428293 
L 158.356684 221.421845 
L 160.594652 221.415723 
L 162.83262 221.409945 
L 165.070588 221.404319 
L 167.308556 221.398803 
L 169.546524 221.393479 
L 171.784492 221.388232 
L 174.02246 221.382977 
L 176.260428 221.377775 
L 178.498396 221.372527 
L 180.736364 221.367194 
L 182.974332 221.361887 
L 185.212299 221.356379 
L 187.450267 221.350873 
L 189.688235 221.345131 
L 191.926203 221.339218 
L 194.164171 221.332991 
L 196.402139 221.326529 
L 198.640107 221.319586 
L 200.878075 221.312166 
L 203.116043 221.30446 
L 205.354011 221.296263 
L 207.591979 221.287607 
L 209.829947 221.278836 
L 212.067914 221.26996 
L 214.305882 221.260959 
L 216.54385 221.252095 
L 218.781818 221.243373 
L 221.019786 221.234944 
L 223.257754 221.226715 
L 225.495722 221.218645 
L 227.73369 221.210559 
L 229.971658 221.202175 
L 232.209626 221.193488 
L 234.447594 221.184491 
L 236.685561 221.174827 
L 238.923529 221.164339 
L 241.161497 221.152829 
L 243.399465 221.140088 
L 245.637433 221.12572 
L 247.875401 221.11004 
L 250.113369 221.092592 
L 252.351337 221.073494 
L 254.589305 221.051879 
L 256.827273 221.026273 
L 259.065241 220.993154 
L 261.303209 220.948192 
L 263.541176 220.88449 
L 265.779144 220.798883 
L 268.017112 220.690657 
L 270.25508 220.513858 
L 272.493048 220.247653 
L 274.731016 219.901252 
L 276.968984 219.833792 
L 279.206952 219.734081 
L 281.44492 219.594501 
L 283.682888 219.414587 
L 285.920856 219.068409 
L 288.158824 218.793807 
L 290.396791 217.569191 
L 292.634759 214.584186 
L 294.872727 214.404327 
L 297.110695 214.252855 
L 299.348663 213.885071 
L 301.586631 31.809034 
" clip-path="url(#p685fd64901)" style="fill: none; stroke: #1f77b4; stroke-width: 1.5; stroke-linecap: square"/>
   </g>
   <g id="line2d_14">
    <path d="M 77.78984 221.625825 
L 80.027807 221.586628 
L 82.265775 221.576581 
L 84.503743 221.569256 
L 86.741711 221.563005 
L 88.979679 221.557486 
L 91.217647 221.552334 
L 93.455615 221.547471 
L 95.693583 221.542762 
L 97.931551 221.538281 
L 100.169519 221.533889 
L 102.407487 221.529575 
L 104.645455 221.525203 
L 106.883422 221.520925 
L 109.12139 221.516634 
L 111.359358 221.512252 
L 113.597326 221.507733 
L 115.835294 221.503216 
L 118.073262 221.498501 
L 120.31123 221.493575 
L 122.549198 221.488461 
L 124.787166 221.483097 
L 127.025134 221.477487 
L 129.263102 221.471707 
L 131.50107 221.465572 
L 133.739037 221.459163 
L 135.977005 221.452435 
L 138.214973 221.445423 
L 140.452941 221.438162 
L 142.690909 221.430917 
L 144.928877 221.423839 
L 147.166845 221.416983 
L 149.404813 221.410508 
L 151.642781 221.404291 
L 153.880749 221.398342 
L 156.118717 221.392714 
L 158.356684 221.387247 
L 160.594652 221.381762 
L 162.83262 221.376284 
L 165.070588 221.370779 
L 167.308556 221.36525 
L 169.546524 221.359703 
L 171.784492 221.354004 
L 174.02246 221.348424 
L 176.260428 221.342764 
L 178.498396 221.336943 
L 180.736364 221.330988 
L 182.974332 221.324831 
L 185.212299 221.318536 
L 187.450267 221.311888 
L 189.688235 221.304998 
L 191.926203 221.297821 
L 194.164171 221.290084 
L 196.402139 221.281889 
L 198.640107 221.273413 
L 200.878075 221.264862 
L 203.116043 221.256496 
L 205.354011 221.247964 
L 207.591979 221.239679 
L 209.829947 221.231608 
L 212.067914 221.223775 
L 214.305882 221.216116 
L 216.54385 221.208485 
L 218.781818 221.200922 
L 221.019786 221.193275 
L 223.257754 221.185479 
L 225.495722 221.177427 
L 227.73369 221.168913 
L 229.971658 221.159912 
L 232.209626 221.150417 
L 234.447594 221.139947 
L 236.685561 221.12869 
L 238.923529 221.11583 
L 241.161497 221.102075 
L 243.399465 221.086903 
L 245.637433 221.07083 
L 247.875401 221.053916 
L 250.113369 221.035952 
L 252.351337 221.015797 
L 254.589305 220.991739 
L 256.827273 220.96028 
L 259.065241 220.917633 
L 261.303209 220.858368 
L 263.541176 220.779676 
L 265.779144 220.679139 
L 268.017112 220.549914 
L 270.25508 220.309475 
L 272.493048 219.955163 
L 274.731016 219.867095 
L 276.968984 219.791903 
L 279.206952 219.677609 
L 281.44492 219.53993 
L 283.682888 219.350715 
L 285.920856 219.002353 
L 288.158824 218.621528 
L 290.396791 216.956111 
L 292.634759 214.516694 
L 294.872727 214.375269 
L 297.110695 214.204866 
L 299.348663 213.773602 
L 301.586631 49.416937 
" clip-path="url(#p685fd64901)" style="fill: none; stroke: #ff7f0e; stroke-width: 1.5; stroke-linecap: square"/>
   </g>
   <g id="line2d_15">
    <path d="M 77.78984 221.625627 
L 80.027807 221.585251 
L 82.265775 221.575381 
L 84.503743 221.56801 
L 86.741711 221.562007 
L 88.979679 221.556566 
L 91.217647 221.551547 
L 93.455615 221.546807 
L 95.693583 221.542273 
L 97.931551 221.537954 
L 100.169519 221.533778 
L 102.407487 221.529642 
L 104.645455 221.525532 
L 106.883422 221.521526 
L 109.12139 221.517493 
L 111.359358 221.513545 
L 113.597326 221.509502 
L 115.835294 221.505374 
L 118.073262 221.501161 
L 120.31123 221.496771 
L 122.549198 221.492288 
L 124.787166 221.487561 
L 127.025134 221.482554 
L 129.263102 221.477172 
L 131.50107 221.471381 
L 133.739037 221.465178 
L 135.977005 221.458764 
L 138.214973 221.452023 
L 140.452941 221.445052 
L 142.690909 221.438122 
L 144.928877 221.431167 
L 147.166845 221.424391 
L 149.404813 221.417844 
L 151.642781 221.411557 
L 153.880749 221.405729 
L 156.118717 221.400067 
L 158.356684 221.394558 
L 160.594652 221.389421 
L 162.83262 221.384297 
L 165.070588 221.379069 
L 167.308556 221.374032 
L 169.546524 221.368987 
L 171.784492 221.363967 
L 174.02246 221.358847 
L 176.260428 221.353727 
L 178.498396 221.348349 
L 180.736364 221.342989 
L 182.974332 221.337377 
L 185.212299 221.331604 
L 187.450267 221.325425 
L 189.688235 221.318834 
L 191.926203 221.311905 
L 194.164171 221.304547 
L 196.402139 221.296903 
L 198.640107 221.288989 
L 200.878075 221.280658 
L 203.116043 221.272328 
L 205.354011 221.264041 
L 207.591979 221.255968 
L 209.829947 221.248015 
L 212.067914 221.240304 
L 214.305882 221.232966 
L 216.54385 221.225654 
L 218.781818 221.218317 
L 221.019786 221.211199 
L 223.257754 221.204155 
L 225.495722 221.196789 
L 227.73369 221.189104 
L 229.971658 221.180874 
L 232.209626 221.172386 
L 234.447594 221.163205 
L 236.685561 221.153141 
L 238.923529 221.141635 
L 241.161497 221.129176 
L 243.399465 221.115433 
L 245.637433 221.100306 
L 247.875401 221.084295 
L 250.113369 221.067241 
L 252.351337 221.048034 
L 254.589305 221.024786 
L 256.827273 220.99579 
L 259.065241 220.957751 
L 261.303209 220.904336 
L 263.541176 220.832134 
L 265.779144 220.739222 
L 268.017112 220.62072 
L 270.25508 220.426775 
L 272.493048 220.05003 
L 274.731016 219.881735 
L 276.968984 219.815188 
L 279.206952 219.711776 
L 281.44492 219.574447 
L 283.682888 219.394385 
L 285.920856 219.042959 
L 288.158824 218.705862 
L 290.396791 217.213748 
L 292.634759 214.532305 
L 294.872727 214.382804 
L 297.110695 214.224841 
L 299.348663 213.856086 
L 301.586631 41.981189 
" clip-path="url(#p685fd64901)" style="fill: none; stroke: #2ca02c; stroke-width: 1.5; stroke-linecap: square"/>
   </g>
   <g id="line2d_16">
    <path d="M 77.78984 221.625448 
L 80.027807 221.583938 
L 82.265775 221.574134 
L 84.503743 221.567006 
L 86.741711 221.560983 
L 88.979679 221.555485 
L 91.217647 221.550499 
L 93.455615 221.545796 
L 95.693583 221.541202 
L 97.931551 221.53682 
L 100.169519 221.532508 
L 102.407487 221.52834 
L 104.645455 221.52416 
L 106.883422 221.519985 
L 109.12139 221.515986 
L 111.359358 221.51202 
L 113.597326 221.507959 
L 115.835294 221.503906 
L 118.073262 221.499792 
L 120.31123 221.495557 
L 122.549198 221.491191 
L 124.787166 221.486671 
L 127.025134 221.481925 
L 129.263102 221.476992 
L 131.50107 221.471658 
L 133.739037 221.466135 
L 135.977005 221.460185 
L 138.214973 221.453858 
L 140.452941 221.447389 
L 142.690909 221.440729 
L 144.928877 221.433909 
L 147.166845 221.427191 
L 149.404813 221.420661 
L 151.642781 221.414393 
L 153.880749 221.408251 
L 156.118717 221.402314 
L 158.356684 221.396698 
L 160.594652 221.391244 
L 162.83262 221.385826 
L 165.070588 221.380716 
L 167.308556 221.375438 
L 169.546524 221.370293 
L 171.784492 221.365227 
L 174.02246 221.360113 
L 176.260428 221.354927 
L 178.498396 221.349717 
L 180.736364 221.344472 
L 182.974332 221.339075 
L 185.212299 221.333498 
L 187.450267 221.327752 
L 189.688235 221.321713 
L 191.926203 221.31541 
L 194.164171 221.30858 
L 196.402139 221.301298 
L 198.640107 221.293721 
L 200.878075 221.28555 
L 203.116043 221.277398 
L 205.354011 221.268984 
L 207.591979 221.260443 
L 209.829947 221.251936 
L 212.067914 221.243776 
L 214.305882 221.235912 
L 216.54385 221.228201 
L 218.781818 221.220697 
L 221.019786 221.21345 
L 223.257754 221.206015 
L 225.495722 221.19835 
L 227.73369 221.190822 
L 229.971658 221.182868 
L 232.209626 221.174373 
L 234.447594 221.165252 
L 236.685561 221.15531 
L 238.923529 221.144259 
L 241.161497 221.132251 
L 243.399465 221.119162 
L 245.637433 221.104521 
L 247.875401 221.088603 
L 250.113369 221.071425 
L 252.351337 221.052711 
L 254.589305 221.030693 
L 256.827273 221.003933 
L 259.065241 220.967278 
L 261.303209 220.916666 
L 263.541176 220.843535 
L 265.779144 220.750136 
L 268.017112 220.627941 
L 270.25508 220.460468 
L 272.493048 220.00067 
L 274.731016 219.8774 
L 276.968984 219.811463 
L 279.206952 219.706802 
L 281.44492 219.566712 
L 283.682888 219.387836 
L 285.920856 219.019193 
L 288.158824 218.686242 
L 290.396791 217.138307 
L 292.634759 214.519001 
L 294.872727 214.376752 
L 297.110695 214.224896 
L 299.348663 213.865642 
L 301.586631 52.846589 
" clip-path="url(#p685fd64901)" style="fill: none; stroke: #d62728; stroke-width: 1.5; stroke-linecap: square"/>
   </g>
   <g id="patch_3">
    <path d="M 66.6 231.118125 
L 66.6 22.318125 
" style="fill: none; stroke: #000000; stroke-width: 0.8; stroke-linejoin: miter; stroke-linecap: square"/>
   </g>
   <g id="patch_4">
    <path d="M 312.776471 231.118125 
L 312.776471 22.318125 
" style="fill: none; stroke: #000000; stroke-width: 0.8; stroke-linejoin: miter; stroke-linecap: square"/>
   </g>
   <g id="patch_5">
    <path d="M 66.6 231.118125 
L 312.776471 231.118125 
" style="fill: none; stroke: #000000; stroke-width: 0.8; stroke-linejoin: miter; stroke-linecap: square"/>
   </g>
   <g id="patch_6">
    <path d="M 66.6 22.318125 
L 312.776471 22.318125 
" style="fill: none; stroke: #000000; stroke-width: 0.8; stroke-linejoin: miter; stroke-linecap: square"/>
   </g>
   <g id="text_14">
    <!-- Mean -->
    <g transform="translate(173.34011 16.318125)scale(0.12 -0.12)">
     <defs>
      <path id="DejaVuSans-4d" d="M 628 4666 
L 1569 4666 
L 2759 1491 
L 3956 4666 
L 4897 4666 
L 4897 0 
L 4281 0 
L 4281 4097 
L 3078 897 
L 2444 897 
L 1241 4097 
L 1241 0 
L 628 0 
L 628 4666 
z
" transform="scale(0.015625)"/>
     </defs>
     <use xlink:href="#DejaVuSans-4d"/>
     <use xlink:href="#DejaVuSans-65" x="86.279297"/>
     <use xlink:href="#DejaVuSans-61" x="147.802734"/>
     <use xlink:href="#DejaVuSans-6e" x="209.082031"/>
    </g>
   </g>
  </g>
  <g id="axes_2">
   <g id="patch_7">
    <path d="M 362.011765 231.118125 
L 608.188235 231.118125 
L 608.188235 22.318125 
L 362.011765 22.318125 
z
" style="fill: #ffffff"/>
   </g>
   <g id="matplotlib.axis_3">
    <g id="xtick_7">
     <g id="line2d_17">
      <g>
       <use xlink:href="#m68697b8ba1" x="373.201604" y="231.118125" style="stroke: #000000; stroke-width: 0.8"/>
      </g>
     </g>
     <g id="text_15">
      <!-- 0 -->
      <g transform="translate(370.020354 245.716563)scale(0.1 -0.1)">
       <use xlink:href="#DejaVuSans-30"/>
      </g>
     </g>
    </g>
    <g id="xtick_8">
     <g id="line2d_18">
      <g>
       <use xlink:href="#m68697b8ba1" x="417.960963" y="231.118125" style="stroke: #000000; stroke-width: 0.8"/>
      </g>
     </g>
     <g id="text_16">
      <!-- 20 -->
      <g transform="translate(411.598463 245.716563)scale(0.1 -0.1)">
       <use xlink:href="#DejaVuSans-32"/>
       <use xlink:href="#DejaVuSans-30" x="63.623047"/>
      </g>
     </g>
    </g>
    <g id="xtick_9">
     <g id="line2d_19">
      <g>
       <use xlink:href="#m68697b8ba1" x="462.720321" y="231.118125" style="stroke: #000000; stroke-width: 0.8"/>
      </g>
     </g>
     <g id="text_17">
      <!-- 40 -->
      <g transform="translate(456.357821 245.716563)scale(0.1 -0.1)">
       <use xlink:href="#DejaVuSans-34"/>
       <use xlink:href="#DejaVuSans-30" x="63.623047"/>
      </g>
     </g>
    </g>
    <g id="xtick_10">
     <g id="line2d_20">
      <g>
       <use xlink:href="#m68697b8ba1" x="507.479679" y="231.118125" style="stroke: #000000; stroke-width: 0.8"/>
      </g>
     </g>
     <g id="text_18">
      <!-- 60 -->
      <g transform="translate(501.117179 245.716563)scale(0.1 -0.1)">
       <use xlink:href="#DejaVuSans-36"/>
       <use xlink:href="#DejaVuSans-30" x="63.623047"/>
      </g>
     </g>
    </g>
    <g id="xtick_11">
     <g id="line2d_21">
      <g>
       <use xlink:href="#m68697b8ba1" x="552.239037" y="231.118125" style="stroke: #000000; stroke-width: 0.8"/>
      </g>
     </g>
     <g id="text_19">
      <!-- 80 -->
      <g transform="translate(545.876537 245.716563)scale(0.1 -0.1)">
       <use xlink:href="#DejaVuSans-38"/>
       <use xlink:href="#DejaVuSans-30" x="63.623047"/>
      </g>
     </g>
    </g>
    <g id="xtick_12">
     <g id="line2d_22">
      <g>
       <use xlink:href="#m68697b8ba1" x="596.998396" y="231.118125" style="stroke: #000000; stroke-width: 0.8"/>
      </g>
     </g>
     <g id="text_20">
      <!-- 100 -->
      <g transform="translate(587.454646 245.716563)scale(0.1 -0.1)">
       <use xlink:href="#DejaVuSans-31"/>
       <use xlink:href="#DejaVuSans-30" x="63.623047"/>
       <use xlink:href="#DejaVuSans-30" x="127.246094"/>
      </g>
     </g>
    </g>
    <g id="text_21">
     <!-- Percentage of requests -->
     <g transform="translate(427.371094 259.394688)scale(0.1 -0.1)">
      <use xlink:href="#DejaVuSans-50"/>
      <use xlink:href="#DejaVuSans-65" x="56.677734"/>
      <use xlink:href="#DejaVuSans-72" x="118.201172"/>
      <use xlink:href="#DejaVuSans-63" x="157.064453"/>
      <use xlink:href="#DejaVuSans-65" x="212.044922"/>
      <use xlink:href="#DejaVuSans-6e" x="273.568359"/>
      <use xlink:href="#DejaVuSans-74" x="336.947266"/>
      <use xlink:href="#DejaVuSans-61" x="376.15625"/>
      <use xlink:href="#DejaVuSans-67" x="437.435547"/>
      <use xlink:href="#DejaVuSans-65" x="500.912109"/>
      <use xlink:href="#DejaVuSans-20" x="562.435547"/>
      <use xlink:href="#DejaVuSans-6f" x="594.222656"/>
      <use xlink:href="#DejaVuSans-66" x="655.404297"/>
      <use xlink:href="#DejaVuSans-20" x="690.609375"/>
      <use xlink:href="#DejaVuSans-72" x="722.396484"/>
      <use xlink:href="#DejaVuSans-65" x="761.259766"/>
      <use xlink:href="#DejaVuSans-71" x="822.783203"/>
      <use xlink:href="#DejaVuSans-75" x="886.259766"/>
      <use xlink:href="#DejaVuSans-65" x="949.638672"/>
      <use xlink:href="#DejaVuSans-73" x="1011.162109"/>
      <use xlink:href="#DejaVuSans-74" x="1063.261719"/>
      <use xlink:href="#DejaVuSans-73" x="1102.470703"/>
     </g>
    </g>
   </g>
   <g id="matplotlib.axis_4">
    <g id="ytick_7">
     <g id="line2d_23">
      <g>
       <use xlink:href="#me7ea31aaaa" x="362.011765" y="222.239488" style="stroke: #000000; stroke-width: 0.8"/>
      </g>
     </g>
     <g id="text_22">
      <!-- 0 -->
      <g transform="translate(348.649265 226.038706)scale(0.1 -0.1)">
       <use xlink:href="#DejaVuSans-30"/>
      </g>
     </g>
    </g>
    <g id="ytick_8">
     <g id="line2d_24">
      <g>
       <use xlink:href="#me7ea31aaaa" x="362.011765" y="192.116159" style="stroke: #000000; stroke-width: 0.8"/>
      </g>
     </g>
     <g id="text_23">
      <!-- 5000 -->
      <g transform="translate(329.561765 195.915377)scale(0.1 -0.1)">
       <use xlink:href="#DejaVuSans-35"/>
       <use xlink:href="#DejaVuSans-30" x="63.623047"/>
       <use xlink:href="#DejaVuSans-30" x="127.246094"/>
       <use xlink:href="#DejaVuSans-30" x="190.869141"/>
      </g>
     </g>
    </g>
    <g id="ytick_9">
     <g id="line2d_25">
      <g>
       <use xlink:href="#me7ea31aaaa" x="362.011765" y="161.99283" style="stroke: #000000; stroke-width: 0.8"/>
      </g>
     </g>
     <g id="text_24">
      <!-- 10000 -->
      <g transform="translate(323.199265 165.792048)scale(0.1 -0.1)">
       <use xlink:href="#DejaVuSans-31"/>
       <use xlink:href="#DejaVuSans-30" x="63.623047"/>
       <use xlink:href="#DejaVuSans-30" x="127.246094"/>
       <use xlink:href="#DejaVuSans-30" x="190.869141"/>
       <use xlink:href="#DejaVuSans-30" x="254.492188"/>
      </g>
     </g>
    </g>
    <g id="ytick_10">
     <g id="line2d_26">
      <g>
       <use xlink:href="#me7ea31aaaa" x="362.011765" y="131.8695" style="stroke: #000000; stroke-width: 0.8"/>
      </g>
     </g>
     <g id="text_25">
      <!-- 15000 -->
      <g transform="translate(323.199265 135.668719)scale(0.1 -0.1)">
       <use xlink:href="#DejaVuSans-31"/>
       <use xlink:href="#DejaVuSans-35" x="63.623047"/>
       <use xlink:href="#DejaVuSans-30" x="127.246094"/>
       <use xlink:href="#DejaVuSans-30" x="190.869141"/>
       <use xlink:href="#DejaVuSans-30" x="254.492188"/>
      </g>
     </g>
    </g>
    <g id="ytick_11">
     <g id="line2d_27">
      <g>
       <use xlink:href="#me7ea31aaaa" x="362.011765" y="101.746171" style="stroke: #000000; stroke-width: 0.8"/>
      </g>
     </g>
     <g id="text_26">
      <!-- 20000 -->
      <g transform="translate(323.199265 105.54539)scale(0.1 -0.1)">
       <use xlink:href="#DejaVuSans-32"/>
       <use xlink:href="#DejaVuSans-30" x="63.623047"/>
       <use xlink:href="#DejaVuSans-30" x="127.246094"/>
       <use xlink:href="#DejaVuSans-30" x="190.869141"/>
       <use xlink:href="#DejaVuSans-30" x="254.492188"/>
      </g>
     </g>
    </g>
    <g id="ytick_12">
     <g id="line2d_28">
      <g>
       <use xlink:href="#me7ea31aaaa" x="362.011765" y="71.622842" style="stroke: #000000; stroke-width: 0.8"/>
      </g>
     </g>
     <g id="text_27">
      <!-- 25000 -->
      <g transform="translate(323.199265 75.422061)scale(0.1 -0.1)">
       <use xlink:href="#DejaVuSans-32"/>
       <use xlink:href="#DejaVuSans-35" x="63.623047"/>
       <use xlink:href="#DejaVuSans-30" x="127.246094"/>
       <use xlink:href="#DejaVuSans-30" x="190.869141"/>
       <use xlink:href="#DejaVuSans-30" x="254.492188"/>
      </g>
     </g>
    </g>
    <g id="ytick_13">
     <g id="line2d_29">
      <g>
       <use xlink:href="#me7ea31aaaa" x="362.011765" y="41.499513" style="stroke: #000000; stroke-width: 0.8"/>
      </g>
     </g>
     <g id="text_28">
      <!-- 30000 -->
      <g transform="translate(323.199265 45.298732)scale(0.1 -0.1)">
       <defs>
        <path id="DejaVuSans-33" d="M 2597 2516 
Q 3050 2419 3304 2112 
Q 3559 1806 3559 1356 
Q 3559 666 3084 287 
Q 2609 -91 1734 -91 
Q 1441 -91 1130 -33 
Q 819 25 488 141 
L 488 750 
Q 750 597 1062 519 
Q 1375 441 1716 441 
Q 2309 441 2620 675 
Q 2931 909 2931 1356 
Q 2931 1769 2642 2001 
Q 2353 2234 1838 2234 
L 1294 2234 
L 1294 2753 
L 1863 2753 
Q 2328 2753 2575 2939 
Q 2822 3125 2822 3475 
Q 2822 3834 2567 4026 
Q 2313 4219 1838 4219 
Q 1578 4219 1281 4162 
Q 984 4106 628 3988 
L 628 4550 
Q 988 4650 1302 4700 
Q 1616 4750 1894 4750 
Q 2613 4750 3031 4423 
Q 3450 4097 3450 3541 
Q 3450 3153 3228 2886 
Q 3006 2619 2597 2516 
z
" transform="scale(0.015625)"/>
       </defs>
       <use xlink:href="#DejaVuSans-33"/>
       <use xlink:href="#DejaVuSans-30" x="63.623047"/>
       <use xlink:href="#DejaVuSans-30" x="127.246094"/>
       <use xlink:href="#DejaVuSans-30" x="190.869141"/>
       <use xlink:href="#DejaVuSans-30" x="254.492188"/>
      </g>
     </g>
    </g>
   </g>
   <g id="line2d_30">
    <path d="M 373.201604 221.627216 
L 375.439572 221.596026 
L 377.67754 221.588429 
L 379.915508 221.582751 
L 382.153476 221.578091 
L 384.391444 221.573837 
L 386.629412 221.569822 
L 388.86738 221.566005 
L 391.105348 221.562421 
L 393.343316 221.558899 
L 395.581283 221.555637 
L 397.819251 221.552447 
L 400.057219 221.549257 
L 402.295187 221.546184 
L 404.533155 221.543112 
L 406.771123 221.540006 
L 409.009091 221.536855 
L 411.247059 221.533785 
L 413.485027 221.530517 
L 415.722995 221.527369 
L 417.960963 221.524065 
L 420.19893 221.520709 
L 422.436898 221.517338 
L 424.674866 221.51375 
L 426.912834 221.510151 
L 429.150802 221.506361 
L 431.38877 221.502219 
L 433.626738 221.49783 
L 435.864706 221.493366 
L 438.102674 221.488477 
L 440.340642 221.48307 
L 442.57861 221.477666 
L 444.816578 221.472177 
L 447.054545 221.466174 
L 449.292513 221.460432 
L 451.530481 221.454781 
L 453.768449 221.449347 
L 456.006417 221.444178 
L 458.244385 221.439207 
L 460.482353 221.434481 
L 462.720321 221.429824 
L 464.958289 221.425281 
L 467.196257 221.420844 
L 469.434225 221.416365 
L 471.672193 221.412015 
L 473.91016 221.407599 
L 476.148128 221.403192 
L 478.386096 221.39867 
L 480.624064 221.394079 
L 482.862032 221.389504 
L 485.1 221.384705 
L 487.337968 221.37984 
L 489.575936 221.374752 
L 491.813904 221.36946 
L 494.051872 221.3637 
L 496.28984 221.357254 
L 498.527807 221.350729 
L 500.765775 221.343436 
L 503.003743 221.335773 
L 505.241711 221.327983 
L 507.479679 221.320072 
L 509.717647 221.312033 
L 511.955615 221.304252 
L 514.193583 221.29673 
L 516.431551 221.289509 
L 518.669519 221.28256 
L 520.907487 221.275481 
L 523.145455 221.268652 
L 525.383422 221.261591 
L 527.62139 221.254262 
L 529.859358 221.246526 
L 532.097326 221.238369 
L 534.335294 221.229657 
L 536.573262 221.219792 
L 538.81123 221.208863 
L 541.049198 221.196482 
L 543.287166 221.182773 
L 545.525134 221.168031 
L 547.763102 221.152427 
L 550.00107 221.134898 
L 552.239037 221.11471 
L 554.477005 221.088752 
L 556.714973 221.052885 
L 558.952941 221.003009 
L 561.190909 220.933078 
L 563.428877 220.843558 
L 565.666845 220.724501 
L 567.904813 220.521931 
L 570.142781 220.143479 
L 572.380749 220.085206 
L 574.618717 219.998291 
L 576.856684 219.881674 
L 579.094652 219.736203 
L 581.33262 219.425056 
L 583.570588 219.201836 
L 585.808556 218.188511 
L 588.046524 215.525913 
L 590.284492 215.396431 
L 592.52246 215.269305 
L 594.760428 214.974048 
L 596.998396 31.809034 
" clip-path="url(#pc5c6c7fdf8)" style="fill: none; stroke: #1f77b4; stroke-width: 1.5; stroke-linecap: square"/>
   </g>
   <g id="line2d_31">
    <path d="M 373.201604 221.626857 
L 375.439572 221.592899 
L 377.67754 221.584606 
L 379.915508 221.578404 
L 382.153476 221.572982 
L 384.391444 221.568352 
L 386.629412 221.563945 
L 388.86738 221.559725 
L 391.105348 221.555568 
L 393.343316 221.551649 
L 395.581283 221.547952 
L 397.819251 221.544283 
L 400.057219 221.540768 
L 402.295187 221.53728 
L 404.533155 221.533924 
L 406.771123 221.530499 
L 409.009091 221.527059 
L 411.247059 221.523703 
L 413.485027 221.520149 
L 415.722995 221.516606 
L 417.960963 221.512798 
L 420.19893 221.508708 
L 422.436898 221.504433 
L 424.674866 221.500002 
L 426.912834 221.495092 
L 429.150802 221.489848 
L 431.38877 221.484199 
L 433.626738 221.478087 
L 435.864706 221.471716 
L 438.102674 221.464779 
L 440.340642 221.458206 
L 442.57861 221.45222 
L 444.816578 221.446584 
L 447.054545 221.44125 
L 449.292513 221.436174 
L 451.530481 221.431294 
L 453.768449 221.426486 
L 456.006417 221.421956 
L 458.244385 221.417648 
L 460.482353 221.413144 
L 462.720321 221.408554 
L 464.958289 221.404255 
L 467.196257 221.399797 
L 469.434225 221.395366 
L 471.672193 221.390678 
L 473.91016 221.385991 
L 476.148128 221.380973 
L 478.386096 221.375825 
L 480.624064 221.370369 
L 482.862032 221.364531 
L 485.1 221.3586 
L 487.337968 221.352338 
L 489.575936 221.345373 
L 491.813904 221.338116 
L 494.051872 221.330799 
L 496.28984 221.323259 
L 498.527807 221.316205 
L 500.765775 221.30912 
L 503.003743 221.302309 
L 505.241711 221.295802 
L 507.479679 221.289455 
L 509.717647 221.28325 
L 511.955615 221.277442 
L 514.193583 221.271574 
L 516.431551 221.265582 
L 518.669519 221.259648 
L 520.907487 221.253376 
L 523.145455 221.246451 
L 525.383422 221.239601 
L 527.62139 221.23229 
L 529.859358 221.22435 
L 532.097326 221.215415 
L 534.335294 221.204932 
L 536.573262 221.194157 
L 538.81123 221.182327 
L 541.049198 221.169429 
L 543.287166 221.155439 
L 545.525134 221.140604 
L 547.763102 221.123762 
L 550.00107 221.103826 
L 552.239037 221.076821 
L 554.477005 221.03873 
L 556.714973 220.9852 
L 558.952941 220.915793 
L 561.190909 220.827833 
L 563.428877 220.711855 
L 565.666845 220.537574 
L 567.904813 220.1614 
L 570.142781 220.113235 
L 572.380749 220.054519 
L 574.618717 219.956154 
L 576.856684 219.838348 
L 579.094652 219.671254 
L 581.33262 219.351233 
L 583.570588 219.043216 
L 585.808556 217.580553 
L 588.046524 215.490699 
L 590.284492 215.368166 
L 592.52246 215.228147 
L 594.760428 214.86933 
L 596.998396 66.811032 
" clip-path="url(#pc5c6c7fdf8)" style="fill: none; stroke: #ff7f0e; stroke-width: 1.5; stroke-linecap: square"/>
   </g>
   <g id="line2d_32">
    <path d="M 373.201604 221.626026 
L 375.439572 221.591309 
L 377.67754 221.58257 
L 379.915508 221.576356 
L 382.153476 221.571403 
L 384.391444 221.566755 
L 386.629412 221.562487 
L 388.86738 221.55852 
L 391.105348 221.554766 
L 393.343316 221.551145 
L 395.581283 221.547576 
L 397.819251 221.544042 
L 400.057219 221.540476 
L 402.295187 221.537069 
L 404.533155 221.533674 
L 406.771123 221.530336 
L 409.009091 221.526866 
L 411.247059 221.523411 
L 413.485027 221.519944 
L 415.722995 221.516302 
L 417.960963 221.512633 
L 420.19893 221.508678 
L 422.436898 221.504641 
L 424.674866 221.500445 
L 426.912834 221.495923 
L 429.150802 221.491031 
L 431.38877 221.485793 
L 433.626738 221.480118 
L 435.864706 221.473906 
L 438.102674 221.467556 
L 440.340642 221.461366 
L 442.57861 221.455257 
L 444.816578 221.44944 
L 447.054545 221.444156 
L 449.292513 221.439162 
L 451.530481 221.434186 
L 453.768449 221.429586 
L 456.006417 221.425317 
L 458.244385 221.421013 
L 460.482353 221.416844 
L 462.720321 221.412554 
L 464.958289 221.408283 
L 467.196257 221.40418 
L 469.434225 221.399902 
L 471.672193 221.395688 
L 473.91016 221.391239 
L 476.148128 221.38672 
L 478.386096 221.382151 
L 480.624064 221.377442 
L 482.862032 221.372339 
L 485.1 221.366863 
L 487.337968 221.361179 
L 489.575936 221.355028 
L 491.813904 221.348717 
L 494.051872 221.341966 
L 496.28984 221.334625 
L 498.527807 221.327356 
L 500.765775 221.319895 
L 503.003743 221.312584 
L 505.241711 221.30536 
L 507.479679 221.298435 
L 509.717647 221.292034 
L 511.955615 221.285723 
L 514.193583 221.279593 
L 516.431551 221.273438 
L 518.669519 221.267601 
L 520.907487 221.261549 
L 523.145455 221.255124 
L 525.383422 221.248186 
L 527.62139 221.241128 
L 529.859358 221.233516 
L 532.097326 221.225217 
L 534.335294 221.215424 
L 536.573262 221.204893 
L 538.81123 221.193184 
L 541.049198 221.179306 
L 543.287166 221.165636 
L 545.525134 221.151541 
L 547.763102 221.136194 
L 550.00107 221.117653 
L 552.239037 221.095566 
L 554.477005 221.065271 
L 556.714973 221.022089 
L 558.952941 220.958839 
L 561.190909 220.88335 
L 563.428877 220.783633 
L 565.666845 220.644316 
L 567.904813 220.221604 
L 570.142781 220.126764 
L 572.380749 220.072033 
L 574.618717 219.984392 
L 576.856684 219.864363 
L 579.094652 219.717102 
L 581.33262 219.414772 
L 583.570588 219.153244 
L 585.808556 218.042248 
L 588.046524 215.502441 
L 590.284492 215.376725 
L 592.52246 215.244845 
L 594.760428 214.921212 
L 596.998396 31.96998 
" clip-path="url(#pc5c6c7fdf8)" style="fill: none; stroke: #2ca02c; stroke-width: 1.5; stroke-linecap: square"/>
   </g>
   <g id="line2d_33">
    <path d="M 373.201604 221.625707 
L 375.439572 221.590014 
L 377.67754 221.581564 
L 379.915508 221.575515 
L 382.153476 221.570286 
L 384.391444 221.565427 
L 386.629412 221.561249 
L 388.86738 221.557182 
L 391.105348 221.553188 
L 393.343316 221.54948 
L 395.581283 221.545735 
L 397.819251 221.542027 
L 400.057219 221.538334 
L 402.295187 221.534743 
L 404.533155 221.531234 
L 406.771123 221.527676 
L 409.009091 221.524143 
L 411.247059 221.520615 
L 413.485027 221.516919 
L 415.722995 221.513145 
L 417.960963 221.509259 
L 420.19893 221.505228 
L 422.436898 221.500966 
L 424.674866 221.496511 
L 426.912834 221.49179 
L 429.150802 221.486621 
L 431.38877 221.481157 
L 433.626738 221.4755 
L 435.864706 221.469752 
L 438.102674 221.464095 
L 440.340642 221.458197 
L 442.57861 221.452513 
L 444.816578 221.446937 
L 447.054545 221.441472 
L 449.292513 221.436358 
L 451.530481 221.431134 
L 453.768449 221.426239 
L 456.006417 221.421374 
L 458.244385 221.416856 
L 460.482353 221.412373 
L 462.720321 221.407849 
L 464.958289 221.40355 
L 467.196257 221.399221 
L 469.434225 221.394823 
L 471.672193 221.390477 
L 473.91016 221.386127 
L 476.148128 221.381747 
L 478.386096 221.37718 
L 480.624064 221.372526 
L 482.862032 221.367637 
L 485.1 221.362411 
L 487.337968 221.356943 
L 489.575936 221.351166 
L 491.813904 221.344951 
L 494.051872 221.338309 
L 496.28984 221.331013 
L 498.527807 221.323597 
L 500.765775 221.316319 
L 503.003743 221.308752 
L 505.241711 221.301272 
L 507.479679 221.29419 
L 509.717647 221.287602 
L 511.955615 221.281207 
L 514.193583 221.274939 
L 516.431551 221.268974 
L 518.669519 221.262733 
L 520.907487 221.256337 
L 523.145455 221.249918 
L 525.383422 221.243146 
L 527.62139 221.235947 
L 529.859358 221.228136 
L 532.097326 221.219322 
L 534.335294 221.209679 
L 536.573262 221.19945 
L 538.81123 221.18775 
L 541.049198 221.175083 
L 543.287166 221.161669 
L 545.525134 221.146743 
L 547.763102 221.130648 
L 550.00107 221.111444 
L 552.239037 221.088448 
L 554.477005 221.056087 
L 556.714973 221.011194 
L 558.952941 220.94629 
L 561.190909 220.866364 
L 563.428877 220.759185 
L 565.666845 220.610382 
L 567.904813 220.171569 
L 570.142781 220.113389 
L 572.380749 220.056827 
L 574.618717 219.967448 
L 576.856684 219.845587 
L 579.094652 219.685026 
L 581.33262 219.370915 
L 583.570588 219.080966 
L 585.808556 217.757685 
L 588.046524 215.492826 
L 590.284492 215.372634 
L 592.52246 215.242332 
L 594.760428 214.935038 
L 596.998396 75.753227 
" clip-path="url(#pc5c6c7fdf8)" style="fill: none; stroke: #d62728; stroke-width: 1.5; stroke-linecap: square"/>
   </g>
   <g id="patch_8">
    <path d="M 362.011765 231.118125 
L 362.011765 22.318125 
" style="fill: none; stroke: #000000; stroke-width: 0.8; stroke-linejoin: miter; stroke-linecap: square"/>
   </g>
   <g id="patch_9">
    <path d="M 608.188235 231.118125 
L 608.188235 22.318125 
" style="fill: none; stroke: #000000; stroke-width: 0.8; stroke-linejoin: miter; stroke-linecap: square"/>
   </g>
   <g id="patch_10">
    <path d="M 362.011765 231.118125 
L 608.188235 231.118125 
" style="fill: none; stroke: #000000; stroke-width: 0.8; stroke-linejoin: miter; stroke-linecap: square"/>
   </g>
   <g id="patch_11">
    <path d="M 362.011765 22.318125 
L 608.188235 22.318125 
" style="fill: none; stroke: #000000; stroke-width: 0.8; stroke-linejoin: miter; stroke-linecap: square"/>
   </g>
   <g id="text_29">
    <!-- Median -->
    <g transform="translate(463.275937 16.318125)scale(0.12 -0.12)">
     <defs>
      <path id="DejaVuSans-64" d="M 2906 2969 
L 2906 4863 
L 3481 4863 
L 3481 0 
L 2906 0 
L 2906 525 
Q 2725 213 2448 61 
Q 2172 -91 1784 -91 
Q 1150 -91 751 415 
Q 353 922 353 1747 
Q 353 2572 751 3078 
Q 1150 3584 1784 3584 
Q 2172 3584 2448 3432 
Q 2725 3281 2906 2969 
z
M 947 1747 
Q 947 1113 1208 752 
Q 1469 391 1925 391 
Q 2381 391 2643 752 
Q 2906 1113 2906 1747 
Q 2906 2381 2643 2742 
Q 2381 3103 1925 3103 
Q 1469 3103 1208 2742 
Q 947 2381 947 1747 
z
" transform="scale(0.015625)"/>
      <path id="DejaVuSans-69" d="M 603 3500 
L 1178 3500 
L 1178 0 
L 603 0 
L 603 3500 
z
M 603 4863 
L 1178 4863 
L 1178 4134 
L 603 4134 
L 603 4863 
z
" transform="scale(0.015625)"/>
     </defs>
     <use xlink:href="#DejaVuSans-4d"/>
     <use xlink:href="#DejaVuSans-65" x="86.279297"/>
     <use xlink:href="#DejaVuSans-64" x="147.802734"/>
     <use xlink:href="#DejaVuSans-69" x="211.279297"/>
     <use xlink:href="#DejaVuSans-61" x="239.0625"/>
     <use xlink:href="#DejaVuSans-6e" x="300.341797"/>
    </g>
   </g>
  </g>
  <g id="axes_3">
   <g id="patch_12">
    <path d="M 657.423529 231.118125 
L 903.6 231.118125 
L 903.6 22.318125 
L 657.423529 22.318125 
z
" style="fill: #ffffff"/>
   </g>
   <g id="matplotlib.axis_5">
    <g id="xtick_13">
     <g id="line2d_34">
      <g>
       <use xlink:href="#m68697b8ba1" x="668.613369" y="231.118125" style="stroke: #000000; stroke-width: 0.8"/>
      </g>
     </g>
     <g id="text_30">
      <!-- 0 -->
      <g transform="translate(665.432119 245.716563)scale(0.1 -0.1)">
       <use xlink:href="#DejaVuSans-30"/>
      </g>
     </g>
    </g>
    <g id="xtick_14">
     <g id="line2d_35">
      <g>
       <use xlink:href="#m68697b8ba1" x="713.372727" y="231.118125" style="stroke: #000000; stroke-width: 0.8"/>
      </g>
     </g>
     <g id="text_31">
      <!-- 20 -->
      <g transform="translate(707.010227 245.716563)scale(0.1 -0.1)">
       <use xlink:href="#DejaVuSans-32"/>
       <use xlink:href="#DejaVuSans-30" x="63.623047"/>
      </g>
     </g>
    </g>
    <g id="xtick_15">
     <g id="line2d_36">
      <g>
       <use xlink:href="#m68697b8ba1" x="758.132086" y="231.118125" style="stroke: #000000; stroke-width: 0.8"/>
      </g>
     </g>
     <g id="text_32">
      <!-- 40 -->
      <g transform="translate(751.769586 245.716563)scale(0.1 -0.1)">
       <use xlink:href="#DejaVuSans-34"/>
       <use xlink:href="#DejaVuSans-30" x="63.623047"/>
      </g>
     </g>
    </g>
    <g id="xtick_16">
     <g id="line2d_37">
      <g>
       <use xlink:href="#m68697b8ba1" x="802.891444" y="231.118125" style="stroke: #000000; stroke-width: 0.8"/>
      </g>
     </g>
     <g id="text_33">
      <!-- 60 -->
      <g transform="translate(796.528944 245.716563)scale(0.1 -0.1)">
       <use xlink:href="#DejaVuSans-36"/>
       <use xlink:href="#DejaVuSans-30" x="63.623047"/>
      </g>
     </g>
    </g>
    <g id="xtick_17">
     <g id="line2d_38">
      <g>
       <use xlink:href="#m68697b8ba1" x="847.650802" y="231.118125" style="stroke: #000000; stroke-width: 0.8"/>
      </g>
     </g>
     <g id="text_34">
      <!-- 80 -->
      <g transform="translate(841.288302 245.716563)scale(0.1 -0.1)">
       <use xlink:href="#DejaVuSans-38"/>
       <use xlink:href="#DejaVuSans-30" x="63.623047"/>
      </g>
     </g>
    </g>
    <g id="xtick_18">
     <g id="line2d_39">
      <g>
       <use xlink:href="#m68697b8ba1" x="892.41016" y="231.118125" style="stroke: #000000; stroke-width: 0.8"/>
      </g>
     </g>
     <g id="text_35">
      <!-- 100 -->
      <g transform="translate(882.86641 245.716563)scale(0.1 -0.1)">
       <use xlink:href="#DejaVuSans-31"/>
       <use xlink:href="#DejaVuSans-30" x="63.623047"/>
       <use xlink:href="#DejaVuSans-30" x="127.246094"/>
      </g>
     </g>
    </g>
    <g id="text_36">
     <!-- Percentage of requests -->
     <g transform="translate(722.782858 259.394688)scale(0.1 -0.1)">
      <use xlink:href="#DejaVuSans-50"/>
      <use xlink:href="#DejaVuSans-65" x="56.677734"/>
      <use xlink:href="#DejaVuSans-72" x="118.201172"/>
      <use xlink:href="#DejaVuSans-63" x="157.064453"/>
      <use xlink:href="#DejaVuSans-65" x="212.044922"/>
      <use xlink:href="#DejaVuSans-6e" x="273.568359"/>
      <use xlink:href="#DejaVuSans-74" x="336.947266"/>
      <use xlink:href="#DejaVuSans-61" x="376.15625"/>
      <use xlink:href="#DejaVuSans-67" x="437.435547"/>
      <use xlink:href="#DejaVuSans-65" x="500.912109"/>
      <use xlink:href="#DejaVuSans-20" x="562.435547"/>
      <use xlink:href="#DejaVuSans-6f" x="594.222656"/>
      <use xlink:href="#DejaVuSans-66" x="655.404297"/>
      <use xlink:href="#DejaVuSans-20" x="690.609375"/>
      <use xlink:href="#DejaVuSans-72" x="722.396484"/>
      <use xlink:href="#DejaVuSans-65" x="761.259766"/>
      <use xlink:href="#DejaVuSans-71" x="822.783203"/>
      <use xlink:href="#DejaVuSans-75" x="886.259766"/>
      <use xlink:href="#DejaVuSans-65" x="949.638672"/>
      <use xlink:href="#DejaVuSans-73" x="1011.162109"/>
      <use xlink:href="#DejaVuSans-74" x="1063.261719"/>
      <use xlink:href="#DejaVuSans-73" x="1102.470703"/>
     </g>
    </g>
   </g>
   <g id="matplotlib.axis_6">
    <g id="ytick_14">
     <g id="line2d_40">
      <g>
       <use xlink:href="#me7ea31aaaa" x="657.423529" y="222.227167" style="stroke: #000000; stroke-width: 0.8"/>
      </g>
     </g>
     <g id="text_37">
      <!-- 0 -->
      <g transform="translate(644.061029 226.026386)scale(0.1 -0.1)">
       <use xlink:href="#DejaVuSans-30"/>
      </g>
     </g>
    </g>
    <g id="ytick_15">
     <g id="line2d_41">
      <g>
       <use xlink:href="#me7ea31aaaa" x="657.423529" y="192.833354" style="stroke: #000000; stroke-width: 0.8"/>
      </g>
     </g>
     <g id="text_38">
      <!-- 5000 -->
      <g transform="translate(624.973529 196.632572)scale(0.1 -0.1)">
       <use xlink:href="#DejaVuSans-35"/>
       <use xlink:href="#DejaVuSans-30" x="63.623047"/>
       <use xlink:href="#DejaVuSans-30" x="127.246094"/>
       <use xlink:href="#DejaVuSans-30" x="190.869141"/>
      </g>
     </g>
    </g>
    <g id="ytick_16">
     <g id="line2d_42">
      <g>
       <use xlink:href="#me7ea31aaaa" x="657.423529" y="163.43954" style="stroke: #000000; stroke-width: 0.8"/>
      </g>
     </g>
     <g id="text_39">
      <!-- 10000 -->
      <g transform="translate(618.611029 167.238759)scale(0.1 -0.1)">
       <use xlink:href="#DejaVuSans-31"/>
       <use xlink:href="#DejaVuSans-30" x="63.623047"/>
       <use xlink:href="#DejaVuSans-30" x="127.246094"/>
       <use xlink:href="#DejaVuSans-30" x="190.869141"/>
       <use xlink:href="#DejaVuSans-30" x="254.492188"/>
      </g>
     </g>
    </g>
    <g id="ytick_17">
     <g id="line2d_43">
      <g>
       <use xlink:href="#me7ea31aaaa" x="657.423529" y="134.045726" style="stroke: #000000; stroke-width: 0.8"/>
      </g>
     </g>
     <g id="text_40">
      <!-- 15000 -->
      <g transform="translate(618.611029 137.844945)scale(0.1 -0.1)">
       <use xlink:href="#DejaVuSans-31"/>
       <use xlink:href="#DejaVuSans-35" x="63.623047"/>
       <use xlink:href="#DejaVuSans-30" x="127.246094"/>
       <use xlink:href="#DejaVuSans-30" x="190.869141"/>
       <use xlink:href="#DejaVuSans-30" x="254.492188"/>
      </g>
     </g>
    </g>
    <g id="ytick_18">
     <g id="line2d_44">
      <g>
       <use xlink:href="#me7ea31aaaa" x="657.423529" y="104.651912" style="stroke: #000000; stroke-width: 0.8"/>
      </g>
     </g>
     <g id="text_41">
      <!-- 20000 -->
      <g transform="translate(618.611029 108.451131)scale(0.1 -0.1)">
       <use xlink:href="#DejaVuSans-32"/>
       <use xlink:href="#DejaVuSans-30" x="63.623047"/>
       <use xlink:href="#DejaVuSans-30" x="127.246094"/>
       <use xlink:href="#DejaVuSans-30" x="190.869141"/>
       <use xlink:href="#DejaVuSans-30" x="254.492188"/>
      </g>
     </g>
    </g>
    <g id="ytick_19">
     <g id="line2d_45">
      <g>
       <use xlink:href="#me7ea31aaaa" x="657.423529" y="75.258099" style="stroke: #000000; stroke-width: 0.8"/>
      </g>
     </g>
     <g id="text_42">
      <!-- 25000 -->
      <g transform="translate(618.611029 79.057317)scale(0.1 -0.1)">
       <use xlink:href="#DejaVuSans-32"/>
       <use xlink:href="#DejaVuSans-35" x="63.623047"/>
       <use xlink:href="#DejaVuSans-30" x="127.246094"/>
       <use xlink:href="#DejaVuSans-30" x="190.869141"/>
       <use xlink:href="#DejaVuSans-30" x="254.492188"/>
      </g>
     </g>
    </g>
    <g id="ytick_20">
     <g id="line2d_46">
      <g>
       <use xlink:href="#me7ea31aaaa" x="657.423529" y="45.864285" style="stroke: #000000; stroke-width: 0.8"/>
      </g>
     </g>
     <g id="text_43">
      <!-- 30000 -->
      <g transform="translate(618.611029 49.663504)scale(0.1 -0.1)">
       <use xlink:href="#DejaVuSans-33"/>
       <use xlink:href="#DejaVuSans-30" x="63.623047"/>
       <use xlink:href="#DejaVuSans-30" x="127.246094"/>
       <use xlink:href="#DejaVuSans-30" x="190.869141"/>
       <use xlink:href="#DejaVuSans-30" x="254.492188"/>
      </g>
     </g>
    </g>
   </g>
   <g id="line2d_47">
    <path d="M 668.613369 221.627216 
L 670.851337 221.59767 
L 673.089305 221.589855 
L 675.327273 221.583715 
L 677.565241 221.578851 
L 679.803209 221.574585 
L 682.041176 221.57068 
L 684.279144 221.566743 
L 686.517112 221.563256 
L 688.75508 221.559706 
L 690.993048 221.556191 
L 693.231016 221.552829 
L 695.468984 221.549548 
L 697.706952 221.546426 
L 699.94492 221.543146 
L 702.182888 221.539972 
L 704.420856 221.536842 
L 706.658824 221.533635 
L 708.896791 221.530226 
L 711.134759 221.526858 
L 713.372727 221.523441 
L 715.610695 221.51969 
L 717.848663 221.51596 
L 720.086631 221.512021 
L 722.324599 221.507883 
L 724.562567 221.503521 
L 726.800535 221.498811 
L 729.038503 221.493973 
L 731.276471 221.488345 
L 733.514439 221.482355 
L 735.752406 221.476287 
L 737.990374 221.470045 
L 740.228342 221.464043 
L 742.46631 221.458213 
L 744.704278 221.452682 
L 746.942246 221.447277 
L 749.180214 221.44211 
L 751.418182 221.437098 
L 753.65615 221.432409 
L 755.894118 221.427762 
L 758.132086 221.423304 
L 760.370053 221.418524 
L 762.608021 221.414079 
L 764.845989 221.409548 
L 767.083957 221.404964 
L 769.321925 221.400179 
L 771.559893 221.395372 
L 773.797861 221.390543 
L 776.035829 221.385308 
L 778.273797 221.379704 
L 780.511765 221.374018 
L 782.749733 221.368021 
L 784.987701 221.361752 
L 787.225668 221.355442 
L 789.463636 221.34844 
L 791.701604 221.341505 
L 793.939572 221.334551 
L 796.17754 221.327724 
L 798.415508 221.320533 
L 800.653476 221.31355 
L 802.891444 221.306729 
L 805.129412 221.29998 
L 807.36738 221.293125 
L 809.605348 221.286376 
L 811.843316 221.279819 
L 814.081283 221.273237 
L 816.319251 221.266456 
L 818.557219 221.259686 
L 820.795187 221.25232 
L 823.033155 221.24465 
L 825.271123 221.236591 
L 827.509091 221.22799 
L 829.747059 221.218008 
L 831.985027 221.207301 
L 834.222995 221.195343 
L 836.460963 221.18235 
L 838.69893 221.168656 
L 840.936898 221.152752 
L 843.174866 221.135185 
L 845.412834 221.113359 
L 847.650802 221.085644 
L 849.88877 221.047325 
L 852.126738 220.996803 
L 854.364706 220.926176 
L 856.602674 220.837978 
L 858.840642 220.726479 
L 861.07861 220.434045 
L 863.316578 220.19246 
L 865.554545 220.141753 
L 867.792513 220.079288 
L 870.030481 219.981134 
L 872.268449 219.85733 
L 874.506417 219.679698 
L 876.744385 219.399301 
L 878.982353 219.124642 
L 881.220321 217.765694 
L 883.458289 215.652864 
L 885.696257 215.537036 
L 887.934225 215.393401 
L 890.172193 214.989599 
L 892.41016 35.071134 
" clip-path="url(#peb23d2ff2f)" style="fill: none; stroke: #1f77b4; stroke-width: 1.5; stroke-linecap: square"/>
   </g>
   <g id="line2d_48">
    <path d="M 668.613369 221.625289 
L 670.851337 221.590969 
L 673.089305 221.581593 
L 675.327273 221.574707 
L 677.565241 221.568937 
L 679.803209 221.564071 
L 682.041176 221.559256 
L 684.279144 221.554796 
L 686.517112 221.55037 
L 688.75508 221.546181 
L 690.993048 221.541863 
L 693.231016 221.53782 
L 695.468984 221.533568 
L 697.706952 221.529273 
L 699.94492 221.525006 
L 702.182888 221.520172 
L 704.420856 221.515144 
L 706.658824 221.510103 
L 708.896791 221.504322 
L 711.134759 221.497893 
L 713.372727 221.491458 
L 715.610695 221.484807 
L 717.848663 221.47818 
L 720.086631 221.471564 
L 722.324599 221.465159 
L 724.562567 221.458923 
L 726.800535 221.45283 
L 729.038503 221.44705 
L 731.276471 221.441339 
L 733.514439 221.435752 
L 735.752406 221.430515 
L 737.990374 221.425341 
L 740.228342 221.420304 
L 742.46631 221.415308 
L 744.704278 221.41031 
L 746.942246 221.405351 
L 749.180214 221.400345 
L 751.418182 221.394848 
L 753.65615 221.389082 
L 755.894118 221.383086 
L 758.132086 221.377029 
L 760.370053 221.370729 
L 762.608021 221.364173 
L 764.845989 221.357773 
L 767.083957 221.351572 
L 769.321925 221.345175 
L 771.559893 221.338872 
L 773.797861 221.332487 
L 776.035829 221.326244 
L 778.273797 221.320195 
L 780.511765 221.313826 
L 782.749733 221.307325 
L 784.987701 221.300623 
L 787.225668 221.293963 
L 789.463636 221.286938 
L 791.701604 221.279852 
L 793.939572 221.272953 
L 796.17754 221.265252 
L 798.415508 221.257444 
L 800.653476 221.24969 
L 802.891444 221.241317 
L 805.129412 221.233029 
L 807.36738 221.223739 
L 809.605348 221.214996 
L 811.843316 221.205923 
L 814.081283 221.196425 
L 816.319251 221.186116 
L 818.557219 221.175769 
L 820.795187 221.163953 
L 823.033155 221.151621 
L 825.271123 221.137967 
L 827.509091 221.124639 
L 829.747059 221.109207 
L 831.985027 221.093054 
L 834.222995 221.075484 
L 836.460963 221.056889 
L 838.69893 221.03943 
L 840.936898 221.020886 
L 843.174866 221.000577 
L 845.412834 220.977023 
L 847.650802 220.948326 
L 849.88877 220.9102 
L 852.126738 220.860919 
L 854.364706 220.799574 
L 856.602674 220.719826 
L 858.840642 220.60503 
L 861.07861 220.281272 
L 863.316578 220.169337 
L 865.554545 220.112304 
L 867.792513 220.020787 
L 870.030481 219.906881 
L 872.268449 219.785982 
L 874.506417 219.604885 
L 876.744385 219.360802 
L 878.982353 218.930095 
L 881.220321 217.206599 
L 883.458289 215.622887 
L 885.696257 215.503279 
L 887.934225 215.338745 
L 890.172193 214.895544 
L 892.41016 34.193806 
" clip-path="url(#peb23d2ff2f)" style="fill: none; stroke: #ff7f0e; stroke-width: 1.5; stroke-linecap: square"/>
   </g>
   <g id="line2d_49">
    <path d="M 668.613369 221.626632 
L 670.851337 221.591803 
L 673.089305 221.583053 
L 675.327273 221.57656 
L 677.565241 221.571365 
L 679.803209 221.566691 
L 682.041176 221.56223 
L 684.279144 221.558161 
L 686.517112 221.554379 
L 688.75508 221.550717 
L 690.993048 221.547093 
L 693.231016 221.543465 
L 695.468984 221.539917 
L 697.706952 221.536268 
L 699.94492 221.532641 
L 702.182888 221.529099 
L 704.420856 221.525503 
L 706.658824 221.521671 
L 708.896791 221.517618 
L 711.134759 221.513397 
L 713.372727 221.508973 
L 715.610695 221.504406 
L 717.848663 221.499191 
L 720.086631 221.493578 
L 722.324599 221.487266 
L 724.562567 221.480617 
L 726.800535 221.474052 
L 729.038503 221.467584 
L 731.276471 221.461335 
L 733.514439 221.455611 
L 735.752406 221.450085 
L 737.990374 221.445056 
L 740.228342 221.439999 
L 742.46631 221.435219 
L 744.704278 221.430537 
L 746.942246 221.426165 
L 749.180214 221.421859 
L 751.418182 221.417514 
L 753.65615 221.413213 
L 755.894118 221.408774 
L 758.132086 221.404287 
L 760.370053 221.399717 
L 762.608021 221.395282 
L 764.845989 221.390609 
L 767.083957 221.385684 
L 769.321925 221.380539 
L 771.559893 221.375421 
L 773.797861 221.369852 
L 776.035829 221.364074 
L 778.273797 221.358139 
L 780.511765 221.351491 
L 782.749733 221.344515 
L 784.987701 221.337733 
L 787.225668 221.33084 
L 789.463636 221.32365 
L 791.701604 221.316918 
L 793.939572 221.310376 
L 796.17754 221.304051 
L 798.415508 221.298358 
L 800.653476 221.292573 
L 802.891444 221.286945 
L 805.129412 221.281609 
L 807.36738 221.276162 
L 809.605348 221.270178 
L 811.843316 221.264266 
L 814.081283 221.258224 
L 816.319251 221.251502 
L 818.557219 221.244328 
L 820.795187 221.23664 
L 823.033155 221.228542 
L 825.271123 221.2196 
L 827.509091 221.209702 
L 829.747059 221.198602 
L 831.985027 221.186715 
L 834.222995 221.174212 
L 836.460963 221.161151 
L 838.69893 221.146982 
L 840.936898 221.131441 
L 843.174866 221.112879 
L 845.412834 221.0883 
L 847.650802 221.055725 
L 849.88877 221.014677 
L 852.126738 220.959409 
L 854.364706 220.894542 
L 856.602674 220.80011 
L 858.840642 220.680091 
L 861.07861 220.375429 
L 863.316578 220.179435 
L 865.554545 220.13051 
L 867.792513 220.066064 
L 870.030481 219.965135 
L 872.268449 219.8444 
L 874.506417 219.660134 
L 876.744385 219.374002 
L 878.982353 218.966758 
L 881.220321 217.118416 
L 883.458289 215.617277 
L 885.696257 215.508176 
L 887.934225 215.36486 
L 890.172193 214.991508 
L 892.41016 31.809034 
" clip-path="url(#peb23d2ff2f)" style="fill: none; stroke: #2ca02c; stroke-width: 1.5; stroke-linecap: square"/>
   </g>
   <g id="line2d_50">
    <path d="M 668.613369 221.623667 
L 670.851337 221.59064 
L 673.089305 221.582292 
L 675.327273 221.576177 
L 677.565241 221.570994 
L 679.803209 221.566084 
L 682.041176 221.56167 
L 684.279144 221.557442 
L 686.517112 221.553405 
L 688.75508 221.549616 
L 690.993048 221.545928 
L 693.231016 221.542386 
L 695.468984 221.538694 
L 697.706952 221.535084 
L 699.94492 221.531648 
L 702.182888 221.528176 
L 704.420856 221.524666 
L 706.658824 221.521095 
L 708.896791 221.517465 
L 711.134759 221.513498 
L 713.372727 221.509437 
L 715.610695 221.505352 
L 717.848663 221.500911 
L 720.086631 221.496388 
L 722.324599 221.491235 
L 724.562567 221.486245 
L 726.800535 221.480854 
L 729.038503 221.475136 
L 731.276471 221.469391 
L 733.514439 221.463646 
L 735.752406 221.458061 
L 737.990374 221.452688 
L 740.228342 221.447719 
L 742.46631 221.442901 
L 744.704278 221.438113 
L 746.942246 221.43347 
L 749.180214 221.429068 
L 751.418182 221.424639 
L 753.65615 221.420239 
L 755.894118 221.41587 
L 758.132086 221.411457 
L 760.370053 221.407094 
L 762.608021 221.402867 
L 764.845989 221.39841 
L 767.083957 221.393783 
L 769.321925 221.389369 
L 771.559893 221.384859 
L 773.797861 221.380117 
L 776.035829 221.375073 
L 778.273797 221.370086 
L 780.511765 221.364806 
L 782.749733 221.359431 
L 784.987701 221.35347 
L 787.225668 221.347243 
L 789.463636 221.340663 
L 791.701604 221.333678 
L 793.939572 221.327304 
L 796.17754 221.320463 
L 798.415508 221.313719 
L 800.653476 221.306901 
L 802.891444 221.300728 
L 805.129412 221.294619 
L 807.36738 221.288539 
L 809.605348 221.282436 
L 811.843316 221.276416 
L 814.081283 221.27049 
L 816.319251 221.264091 
L 818.557219 221.257829 
L 820.795187 221.251334 
L 823.033155 221.24409 
L 825.271123 221.236015 
L 827.509091 221.227469 
L 829.747059 221.217826 
L 831.985027 221.20747 
L 834.222995 221.196154 
L 836.460963 221.183941 
L 838.69893 221.170225 
L 840.936898 221.155745 
L 843.174866 221.140035 
L 845.412834 221.120833 
L 847.650802 221.095519 
L 849.88877 221.060926 
L 852.126738 221.01501 
L 854.364706 220.947727 
L 856.602674 220.861158 
L 858.840642 220.748838 
L 861.07861 220.589343 
L 863.316578 220.192518 
L 865.554545 220.144993 
L 867.792513 220.08528 
L 870.030481 219.986636 
L 872.268449 219.867892 
L 874.506417 219.705869 
L 876.744385 219.400898 
L 878.982353 219.082445 
L 881.220321 217.509587 
L 883.458289 215.628113 
L 885.696257 215.509307 
L 887.934225 215.376928 
L 890.172193 215.02848 
L 892.41016 35.119124 
" clip-path="url(#peb23d2ff2f)" style="fill: none; stroke: #d62728; stroke-width: 1.5; stroke-linecap: square"/>
   </g>
   <g id="patch_13">
    <path d="M 657.423529 231.118125 
L 657.423529 22.318125 
" style="fill: none; stroke: #000000; stroke-width: 0.8; stroke-linejoin: miter; stroke-linecap: square"/>
   </g>
   <g id="patch_14">
    <path d="M 903.6 231.118125 
L 903.6 22.318125 
" style="fill: none; stroke: #000000; stroke-width: 0.8; stroke-linejoin: miter; stroke-linecap: square"/>
   </g>
   <g id="patch_15">
    <path d="M 657.423529 231.118125 
L 903.6 231.118125 
" style="fill: none; stroke: #000000; stroke-width: 0.8; stroke-linejoin: miter; stroke-linecap: square"/>
   </g>
   <g id="patch_16">
    <path d="M 657.423529 22.318125 
L 903.6 22.318125 
" style="fill: none; stroke: #000000; stroke-width: 0.8; stroke-linejoin: miter; stroke-linecap: square"/>
   </g>
   <g id="text_44">
    <!-- Percentile 95th -->
    <g transform="translate(735.220202 16.318125)scale(0.12 -0.12)">
     <defs>
      <path id="DejaVuSans-6c" d="M 603 4863 
L 1178 4863 
L 1178 0 
L 603 0 
L 603 4863 
z
" transform="scale(0.015625)"/>
      <path id="DejaVuSans-39" d="M 703 97 
L 703 672 
Q 941 559 1184 500 
Q 1428 441 1663 441 
Q 2288 441 2617 861 
Q 2947 1281 2994 2138 
Q 2813 1869 2534 1725 
Q 2256 1581 1919 1581 
Q 1219 1581 811 2004 
Q 403 2428 403 3163 
Q 403 3881 828 4315 
Q 1253 4750 1959 4750 
Q 2769 4750 3195 4129 
Q 3622 3509 3622 2328 
Q 3622 1225 3098 567 
Q 2575 -91 1691 -91 
Q 1453 -91 1209 -44 
Q 966 3 703 97 
z
M 1959 2075 
Q 2384 2075 2632 2365 
Q 2881 2656 2881 3163 
Q 2881 3666 2632 3958 
Q 2384 4250 1959 4250 
Q 1534 4250 1286 3958 
Q 1038 3666 1038 3163 
Q 1038 2656 1286 2365 
Q 1534 2075 1959 2075 
z
" transform="scale(0.015625)"/>
      <path id="DejaVuSans-68" d="M 3513 2113 
L 3513 0 
L 2938 0 
L 2938 2094 
Q 2938 2591 2744 2837 
Q 2550 3084 2163 3084 
Q 1697 3084 1428 2787 
Q 1159 2491 1159 1978 
L 1159 0 
L 581 0 
L 581 4863 
L 1159 4863 
L 1159 2956 
Q 1366 3272 1645 3428 
Q 1925 3584 2291 3584 
Q 2894 3584 3203 3211 
Q 3513 2838 3513 2113 
z
" transform="scale(0.015625)"/>
     </defs>
     <use xlink:href="#DejaVuSans-50"/>
     <use xlink:href="#DejaVuSans-65" x="56.677734"/>
     <use xlink:href="#DejaVuSans-72" x="118.201172"/>
     <use xlink:href="#DejaVuSans-63" x="157.064453"/>
     <use xlink:href="#DejaVuSans-65" x="212.044922"/>
     <use xlink:href="#DejaVuSans-6e" x="273.568359"/>
     <use xlink:href="#DejaVuSans-74" x="336.947266"/>
     <use xlink:href="#DejaVuSans-69" x="376.15625"/>
     <use xlink:href="#DejaVuSans-6c" x="403.939453"/>
     <use xlink:href="#DejaVuSans-65" x="431.722656"/>
     <use xlink:href="#DejaVuSans-20" x="493.246094"/>
     <use xlink:href="#DejaVuSans-39" x="525.033203"/>
     <use xlink:href="#DejaVuSans-35" x="588.65625"/>
     <use xlink:href="#DejaVuSans-74" x="652.279297"/>
     <use xlink:href="#DejaVuSans-68" x="691.488281"/>
    </g>
   </g>
  </g>
  <g id="text_45">
   <!-- Time in ms -->
   <g transform="translate(17.837813 197.540469)rotate(-90)scale(0.14 -0.14)">
    <defs>
     <path id="DejaVuSans-54" d="M -19 4666 
L 3928 4666 
L 3928 4134 
L 2272 4134 
L 2272 0 
L 1638 0 
L 1638 4134 
L -19 4134 
L -19 4666 
z
" transform="scale(0.015625)"/>
     <path id="DejaVuSans-6d" d="M 3328 2828 
Q 3544 3216 3844 3400 
Q 4144 3584 4550 3584 
Q 5097 3584 5394 3201 
Q 5691 2819 5691 2113 
L 5691 0 
L 5113 0 
L 5113 2094 
Q 5113 2597 4934 2840 
Q 4756 3084 4391 3084 
Q 3944 3084 3684 2787 
Q 3425 2491 3425 1978 
L 3425 0 
L 2847 0 
L 2847 2094 
Q 2847 2600 2669 2842 
Q 2491 3084 2119 3084 
Q 1678 3084 1418 2786 
Q 1159 2488 1159 1978 
L 1159 0 
L 581 0 
L 581 3500 
L 1159 3500 
L 1159 2956 
Q 1356 3278 1631 3431 
Q 1906 3584 2284 3584 
Q 2666 3584 2933 3390 
Q 3200 3197 3328 2828 
z
" transform="scale(0.015625)"/>
    </defs>
    <use xlink:href="#DejaVuSans-54"/>
    <use xlink:href="#DejaVuSans-69" x="57.958984"/>
    <use xlink:href="#DejaVuSans-6d" x="85.742188"/>
    <use xlink:href="#DejaVuSans-65" x="183.154297"/>
    <use xlink:href="#DejaVuSans-20" x="244.677734"/>
    <use xlink:href="#DejaVuSans-69" x="276.464844"/>
    <use xlink:href="#DejaVuSans-6e" x="304.248047"/>
    <use xlink:href="#DejaVuSans-20" x="367.626953"/>
    <use xlink:href="#DejaVuSans-6d" x="399.414062"/>
    <use xlink:href="#DejaVuSans-73" x="496.826172"/>
   </g>
  </g>
  <g id="legend_1">
   <g id="patch_17">
    <path d="M 302.389063 336.318125 
L 608.410938 336.318125 
Q 610.410938 336.318125 610.410938 334.318125 
L 610.410938 305.405625 
Q 610.410938 303.405625 608.410938 303.405625 
L 302.389063 303.405625 
Q 300.389063 303.405625 300.389063 305.405625 
L 300.389063 334.318125 
Q 300.389063 336.318125 302.389063 336.318125 
z
" style="fill: #ffffff; opacity: 0.8; stroke: #cccccc; stroke-linejoin: miter"/>
   </g>
   <g id="line2d_51">
    <path d="M 304.389063 311.504063 
L 314.389063 311.504063 
L 324.389063 311.504063 
" style="fill: none; stroke: #1f77b4; stroke-width: 1.5; stroke-linecap: square"/>
   </g>
   <g id="text_46">
    <!-- Xen_4_10_4 -->
    <g transform="translate(332.389063 315.004063)scale(0.1 -0.1)">
     <defs>
      <path id="DejaVuSans-58" d="M 403 4666 
L 1081 4666 
L 2241 2931 
L 3406 4666 
L 4084 4666 
L 2584 2425 
L 4184 0 
L 3506 0 
L 2194 1984 
L 872 0 
L 191 0 
L 1856 2491 
L 403 4666 
z
" transform="scale(0.015625)"/>
      <path id="DejaVuSans-5f" d="M 3263 -1063 
L 3263 -1509 
L -63 -1509 
L -63 -1063 
L 3263 -1063 
z
" transform="scale(0.015625)"/>
     </defs>
     <use xlink:href="#DejaVuSans-58"/>
     <use xlink:href="#DejaVuSans-65" x="64.005859"/>
     <use xlink:href="#DejaVuSans-6e" x="125.529297"/>
     <use xlink:href="#DejaVuSans-5f" x="188.908203"/>
     <use xlink:href="#DejaVuSans-34" x="238.908203"/>
     <use xlink:href="#DejaVuSans-5f" x="302.53125"/>
     <use xlink:href="#DejaVuSans-31" x="352.53125"/>
     <use xlink:href="#DejaVuSans-30" x="416.154297"/>
     <use xlink:href="#DejaVuSans-5f" x="479.777344"/>
     <use xlink:href="#DejaVuSans-34" x="529.777344"/>
    </g>
   </g>
   <g id="line2d_52">
    <path d="M 304.389063 326.460312 
L 314.389063 326.460312 
L 324.389063 326.460312 
" style="fill: none; stroke: #ff7f0e; stroke-width: 1.5; stroke-linecap: square"/>
   </g>
   <g id="text_47">
    <!-- Xen_4_11_1 -->
    <g transform="translate(332.389063 329.960312)scale(0.1 -0.1)">
     <use xlink:href="#DejaVuSans-58"/>
     <use xlink:href="#DejaVuSans-65" x="64.005859"/>
     <use xlink:href="#DejaVuSans-6e" x="125.529297"/>
     <use xlink:href="#DejaVuSans-5f" x="188.908203"/>
     <use xlink:href="#DejaVuSans-34" x="238.908203"/>
     <use xlink:href="#DejaVuSans-5f" x="302.53125"/>
     <use xlink:href="#DejaVuSans-31" x="352.53125"/>
     <use xlink:href="#DejaVuSans-31" x="416.154297"/>
     <use xlink:href="#DejaVuSans-5f" x="479.777344"/>
     <use xlink:href="#DejaVuSans-31" x="529.777344"/>
    </g>
   </g>
   <g id="line2d_53">
    <path d="M 411.729688 311.504063 
L 421.729688 311.504063 
L 431.729688 311.504063 
" style="fill: none; stroke: #2ca02c; stroke-width: 1.5; stroke-linecap: square"/>
   </g>
   <g id="text_48">
    <!-- Xen_4_11_2 -->
    <g transform="translate(439.729688 315.004063)scale(0.1 -0.1)">
     <use xlink:href="#DejaVuSans-58"/>
     <use xlink:href="#DejaVuSans-65" x="64.005859"/>
     <use xlink:href="#DejaVuSans-6e" x="125.529297"/>
     <use xlink:href="#DejaVuSans-5f" x="188.908203"/>
     <use xlink:href="#DejaVuSans-34" x="238.908203"/>
     <use xlink:href="#DejaVuSans-5f" x="302.53125"/>
     <use xlink:href="#DejaVuSans-31" x="352.53125"/>
     <use xlink:href="#DejaVuSans-31" x="416.154297"/>
     <use xlink:href="#DejaVuSans-5f" x="479.777344"/>
     <use xlink:href="#DejaVuSans-32" x="529.777344"/>
    </g>
   </g>
   <g id="line2d_54">
    <path d="M 519.070312 311.504063 
L 529.070312 311.504063 
L 539.070312 311.504063 
" style="fill: none; stroke: #d62728; stroke-width: 1.5; stroke-linecap: square"/>
   </g>
   <g id="text_49">
    <!-- Xen_4_11_3 -->
    <g transform="translate(547.070312 315.004063)scale(0.1 -0.1)">
     <use xlink:href="#DejaVuSans-58"/>
     <use xlink:href="#DejaVuSans-65" x="64.005859"/>
     <use xlink:href="#DejaVuSans-6e" x="125.529297"/>
     <use xlink:href="#DejaVuSans-5f" x="188.908203"/>
     <use xlink:href="#DejaVuSans-34" x="238.908203"/>
     <use xlink:href="#DejaVuSans-5f" x="302.53125"/>
     <use xlink:href="#DejaVuSans-31" x="352.53125"/>
     <use xlink:href="#DejaVuSans-31" x="416.154297"/>
     <use xlink:href="#DejaVuSans-5f" x="479.777344"/>
     <use xlink:href="#DejaVuSans-33" x="529.777344"/>
    </g>
   </g>
  </g>
 </g>
 <defs>
  <clipPath id="p685fd64901">
   <rect x="66.6" y="22.318125" width="246.176471" height="208.8"/>
  </clipPath>
  <clipPath id="pc5c6c7fdf8">
   <rect x="362.011765" y="22.318125" width="246.176471" height="208.8"/>
  </clipPath>
  <clipPath id="peb23d2ff2f">
   <rect x="657.423529" y="22.318125" width="246.176471" height="208.8"/>
  </clipPath>
 </defs>
</svg>
